<svg width="61" height="17" viewBox="0 0 61 17" fill="none" xmlns="http://www.w3.org/2000/svg">
<path d="M6.61354 3.39624C6.51454 2.60224 6.90855 1.75925 7.34755 1.24225C7.84555 0.656249 8.71255 0.207246 9.40355 0.177246C9.49255 1.00525 9.16655 1.81825 8.68855 2.41525C8.19055 3.00125 7.39254 3.45524 6.61354 3.39624Z" fill="white"/>
<path d="M12.3115 10.4204C12.3015 10.4694 12.0255 11.4314 11.3405 12.4014C10.7635 13.2594 10.1675 14.0974 9.2105 14.1124C8.2835 14.1324 7.97349 13.5654 6.90849 13.5654C5.83949 13.5654 5.50347 14.0984 4.61647 14.1324C3.70447 14.1674 3.01547 13.2164 2.41847 12.3684C1.23047 10.6334 0.308487 7.47844 1.54549 5.33444C2.14249 4.28044 3.24147 3.60444 4.40947 3.58444C5.31647 3.57044 6.16348 4.20044 6.72148 4.20044C7.26848 4.20044 8.3135 3.44144 9.3875 3.55444C9.8365 3.56944 11.1175 3.73642 11.9455 4.93942C11.8815 4.97842 10.4225 5.83644 10.4375 7.60144C10.4585 9.71044 12.2875 10.4104 12.3115 10.4204Z" fill="white"/>
<path d="M20.3005 6.72705H18.8515L16.5105 14.008H17.7185L18.3635 11.869H20.7295L21.4095 14.008H22.6515L20.3005 6.72705ZM18.5705 10.971L19.1775 9.07303C19.3355 8.47203 19.4485 8.01303 19.5225 7.70303H19.5465C19.7245 8.42303 19.8475 8.87603 19.9115 9.07303L20.5275 10.971H18.5705Z" fill="white"/>
<path d="M28.0395 9.38391C27.6255 8.89591 27.1125 8.6499 26.4915 8.6499C25.7025 8.6499 25.1115 8.96491 24.7225 9.59091H24.7025L24.6385 8.7579H23.6135C23.6425 9.3499 23.6575 9.92092 23.6575 10.4839V16.1379H24.8255V13.3819C25.1305 13.8799 25.6285 14.1259 26.3235 14.1259C26.9645 14.1259 27.5065 13.8989 27.9405 13.4359C28.4285 12.9179 28.6695 12.2139 28.6695 11.3209C28.6705 10.5179 28.4635 9.87691 28.0395 9.38391ZM27.1125 12.7019C26.8665 13.0369 26.5265 13.2099 26.0865 13.2099C25.7115 13.2099 25.4065 13.0769 25.1745 12.8159C24.9435 12.5549 24.8245 12.2289 24.8245 11.8499V10.9719C24.8245 10.8779 24.8445 10.7599 24.8785 10.6179C24.9475 10.3069 25.1055 10.0609 25.3365 9.86792C25.5735 9.68092 25.8345 9.58191 26.1205 9.58191C26.5445 9.58191 26.8845 9.75491 27.1365 10.0999C27.3675 10.4299 27.4815 10.8489 27.4815 11.3619C27.4825 11.9179 27.3595 12.3619 27.1125 12.7019Z" fill="white"/>
<path d="M34.0725 9.38391C33.6585 8.89591 33.1465 8.6499 32.5245 8.6499C31.7365 8.6499 31.1445 8.96491 30.7555 9.59091H30.7355L30.6715 8.7579H29.6455C29.6755 9.3499 29.6895 9.92092 29.6895 10.4839V16.1379H30.8575V13.3819C31.1635 13.8799 31.6615 14.1259 32.3565 14.1259C32.9975 14.1259 33.5395 13.8989 33.9725 13.4359C34.4605 12.9179 34.7025 12.2139 34.7025 11.3209C34.7035 10.5179 34.4965 9.87691 34.0725 9.38391ZM33.1465 12.7019C32.9045 13.0369 32.5595 13.2099 32.1205 13.2099C31.7455 13.2099 31.4405 13.0769 31.2085 12.8159C30.9765 12.5549 30.8585 12.2289 30.8585 11.8499V10.9719C30.8585 10.8779 30.8785 10.7599 30.9125 10.6179C30.9865 10.3069 31.1395 10.0609 31.3715 9.86792C31.6085 9.68092 31.8685 9.58191 32.1555 9.58191C32.5795 9.58191 32.9195 9.75491 33.1705 10.0999C33.4025 10.4299 33.5155 10.8489 33.5155 11.3619C33.5155 11.9179 33.3975 12.3619 33.1465 12.7019Z" fill="white"/>
<path d="M41.0085 10.701C41.3095 11.041 41.4565 11.465 41.4565 11.968C41.4565 12.589 41.2395 13.092 40.8105 13.481C40.3375 13.905 39.6775 14.117 38.8295 14.117C38.0455 14.117 37.4195 13.964 36.9465 13.663L37.2175 12.692C37.7295 12.993 38.2925 13.146 38.9035 13.146C39.3425 13.146 39.6875 13.047 39.9285 12.851C40.1745 12.654 40.2985 12.388 40.2985 12.057C40.2985 11.761 40.1945 11.515 39.9975 11.313C39.7955 11.111 39.4605 10.923 38.9915 10.751C37.7055 10.273 37.0695 9.57802 37.0695 8.66602C37.0695 8.07002 37.2965 7.58202 37.7445 7.19702C38.1935 6.81702 38.7895 6.625 39.5345 6.625C40.1945 6.625 40.7475 6.739 41.1855 6.97L40.8905 7.91602C40.4765 7.69402 40.0125 7.58099 39.4905 7.58099C39.0815 7.58099 38.7555 7.68402 38.5245 7.88202C38.3325 8.06402 38.2335 8.281 38.2335 8.543C38.2335 8.829 38.3475 9.07002 38.5685 9.25302C38.7605 9.42602 39.1155 9.613 39.6285 9.815C40.2535 10.065 40.7125 10.36 41.0085 10.701Z" fill="white"/>
<path d="M44.0345 8.75812H45.3205V9.63614H44.0345V12.1841C44.0345 12.8301 44.2615 13.1551 44.7145 13.1551C44.9215 13.1551 45.0935 13.1351 45.2325 13.1011L45.2665 13.9891C45.0355 14.0731 44.7345 14.1171 44.3595 14.1171C43.8965 14.1171 43.5415 13.9741 43.2795 13.6931C43.0185 13.4121 42.8895 12.9391 42.8895 12.2791V9.63214H42.1255V8.75912H42.8895V7.79813L44.0335 7.45312L44.0345 8.75812Z" fill="white"/>
<path d="M50.4375 9.4238C49.9695 8.9108 49.3475 8.65479 48.5795 8.65479C47.7805 8.65479 47.1455 8.91581 46.6725 9.43381C46.2035 9.95081 45.9675 10.6168 45.9675 11.4298C45.9675 12.2088 46.1945 12.8538 46.6525 13.3618C47.1115 13.8698 47.7275 14.1258 48.4965 14.1258C49.2955 14.1258 49.9355 13.8598 50.4185 13.3268C50.8765 12.8088 51.1085 12.1488 51.1085 11.3408C51.1085 10.5578 50.8855 9.9168 50.4375 9.4238ZM49.5795 12.6178C49.3235 13.0418 48.9725 13.2538 48.5295 13.2538C48.0755 13.2538 47.7205 13.0468 47.4695 12.6278C47.2625 12.2878 47.1595 11.8738 47.1595 11.3908C47.1595 10.8938 47.2585 10.4748 47.4695 10.1288C47.7115 9.70978 48.0705 9.50281 48.5395 9.50281C48.9935 9.50281 49.3425 9.70978 49.5895 10.1288C49.7965 10.4738 49.8995 10.8828 49.8995 11.3658C49.8995 11.8488 49.7915 12.2628 49.5795 12.6178Z" fill="white"/>
<path d="M54.8985 8.67012L54.9035 9.7841C54.7905 9.7641 54.6665 9.75511 54.5345 9.75511C54.1255 9.75511 53.8055 9.90812 53.5825 10.2181C53.3905 10.4891 53.2915 10.8391 53.2915 11.2531V14.0091H52.1235V10.4111C52.1235 9.80412 52.1135 9.25311 52.0885 8.75911H53.1045L53.1485 9.76512H53.1835C53.3065 9.42012 53.4985 9.13911 53.7645 8.93211C54.0255 8.74511 54.3065 8.65211 54.6075 8.65211C54.7165 8.65011 54.8145 8.66012 54.8985 8.67012Z" fill="white"/>
<path d="M60.1185 11.1338C60.1185 10.4778 59.9605 9.93075 59.6505 9.47775C59.2655 8.91575 58.6895 8.63477 57.9345 8.63477C57.1655 8.63477 56.5545 8.91575 56.1015 9.47775C55.6675 10.0048 55.4515 10.6658 55.4515 11.4548C55.4515 12.2578 55.6825 12.9038 56.1465 13.3818C56.6095 13.8598 57.2505 14.1018 58.0635 14.1018C58.7395 14.1018 59.3255 13.9938 59.8235 13.7758L59.6415 12.9678C59.2175 13.1308 58.7445 13.2138 58.2265 13.2138C57.7585 13.2138 57.3785 13.0908 57.0835 12.8488C56.7575 12.5778 56.5905 12.1778 56.5755 11.6608H60.0755C60.1035 11.5188 60.1185 11.3408 60.1185 11.1338ZM56.5795 10.8288C56.6145 10.4788 56.7325 10.1728 56.9245 9.92175C57.1615 9.60675 57.4715 9.44876 57.8515 9.44876C58.2655 9.44876 58.5765 9.61177 58.7785 9.93677C58.9365 10.1878 59.0155 10.4888 59.0055 10.8338L56.5795 10.8288Z" fill="white"/>
<path d="M19.0525 0.581055C20.2615 0.581055 20.9775 1.32506 20.9775 2.60706C20.9775 3.89206 20.2645 4.64706 19.0525 4.64706H17.6185V0.581055H19.0525ZM18.2495 4.10007H18.9935C19.8555 4.10007 20.3325 3.57306 20.3325 2.61206C20.3325 1.65406 19.8535 1.12408 18.9935 1.12408H18.2495V4.10007Z" fill="white"/>
<path d="M21.3716 3.16492C21.3716 2.21292 21.9326 1.62891 22.7776 1.62891C23.6226 1.62891 24.1836 2.21192 24.1836 3.16492C24.1836 4.11992 23.6256 4.70392 22.7776 4.70392C21.9296 4.70292 21.3716 4.11992 21.3716 3.16492ZM23.5636 3.16492C23.5636 2.50792 23.2536 2.13092 22.7776 2.13092C22.3016 2.13092 21.9916 2.50892 21.9916 3.16492C21.9916 3.82392 22.3016 4.2019 22.7776 4.2019C23.2566 4.2019 23.5636 3.82392 23.5636 3.16492Z" fill="white"/>
<path d="M27.7426 4.64709H27.1086L26.4856 2.42709H26.4716L25.8546 4.64709H25.2266L24.4126 1.68311H25.0216L25.5626 4.01611H25.5736L26.1906 1.68311H26.7766L27.3966 4.01611H27.4106L27.9516 1.68311H28.5546L27.7426 4.64709Z" fill="white"/>
<path d="M28.9265 1.68283H29.5075V2.17883H29.5215C29.6825 1.84083 29.9975 1.63184 30.4545 1.63184C31.1085 1.63184 31.4835 2.04881 31.4835 2.72781V4.64682H30.8725V2.84583C30.8725 2.40083 30.6635 2.15582 30.2415 2.15582C29.8135 2.15582 29.5375 2.45983 29.5375 2.91983V4.64682H28.9285V1.68283H28.9265Z" fill="white"/>
<path d="M32.0906 0.581055H32.6996V4.64706H32.0906V0.581055Z" fill="white"/>
<path d="M33.1925 3.16492C33.1925 2.21292 33.7535 1.62891 34.5985 1.62891C35.4435 1.62891 36.0045 2.21192 36.0045 3.16492C36.0045 4.11992 35.4465 4.70392 34.5985 4.70392C33.7505 4.70392 33.1925 4.11992 33.1925 3.16492ZM35.3855 3.16492C35.3855 2.50792 35.0755 2.13092 34.5995 2.13092C34.1235 2.13092 33.8135 2.50892 33.8135 3.16492C33.8135 3.82392 34.1235 4.2019 34.5995 4.2019C35.0775 4.2019 35.3855 3.82392 35.3855 3.16492Z" fill="white"/>
<path d="M36.3575 3.80392C36.3575 3.28592 36.7546 2.96692 37.4596 2.92792L38.2715 2.87991V2.65192C38.2715 2.32192 38.0485 2.12491 37.6765 2.12491C37.3245 2.12491 37.1046 2.29393 37.0506 2.55893H36.4756C36.5096 2.02393 36.9655 1.62891 37.6985 1.62891C38.4175 1.62891 38.8766 2.00891 38.8766 2.60391V4.64691H38.2935V4.15991H38.2786C38.1066 4.48991 37.7316 4.69791 37.3426 4.69791C36.7626 4.69791 36.3575 4.33692 36.3575 3.80392ZM38.2706 3.53693V3.30292L37.5406 3.34793C37.1766 3.37293 36.9716 3.5339 36.9716 3.7879C36.9716 4.0469 37.1856 4.21591 37.5126 4.21591C37.9386 4.21591 38.2706 3.92293 38.2706 3.53693Z" fill="white"/>
<path d="M39.3325 3.16507C39.3325 2.22907 39.8285 1.63507 40.5725 1.63507C40.9985 1.63507 41.3365 1.84906 41.5025 2.17606H41.5135V0.581055H42.1245V4.64706H41.5325V4.14307H41.5215C41.3465 4.48107 41.0085 4.69806 40.5775 4.69806C39.8285 4.69806 39.3325 4.10007 39.3325 3.16507ZM39.9555 3.16507C39.9555 3.79107 40.2565 4.18207 40.7385 4.18207C41.2065 4.18207 41.5195 3.78507 41.5195 3.16507C41.5195 2.55107 41.2065 2.14807 40.7385 2.14807C40.2575 2.14807 39.9555 2.54207 39.9555 3.16507Z" fill="white"/>
<path d="M43.7855 3.16492C43.7855 2.21292 44.3465 1.62891 45.1915 1.62891C46.0365 1.62891 46.5975 2.21192 46.5975 3.16492C46.5975 4.11992 46.0395 4.70392 45.1915 4.70392C44.3435 4.70292 43.7855 4.11992 43.7855 3.16492ZM45.9775 3.16492C45.9775 2.50792 45.6675 2.13092 45.1915 2.13092C44.7155 2.13092 44.4055 2.50892 44.4055 3.16492C44.4055 3.82392 44.7155 4.2019 45.1915 4.2019C45.6705 4.2019 45.9775 3.82392 45.9775 3.16492Z" fill="white"/>
<path d="M47.0686 1.68283H47.6486V2.17883H47.6626C47.8236 1.84083 48.1386 1.63184 48.5956 1.63184C49.2496 1.63184 49.6246 2.04881 49.6246 2.72781V4.64682H49.0136V2.84583C49.0136 2.40083 48.8046 2.15582 48.3826 2.15582C47.9546 2.15582 47.6786 2.45983 47.6786 2.91983V4.64682H47.0696L47.0686 1.68283Z" fill="white"/>
<path d="M52.1685 0.980957V1.68295H52.7325V2.16495H52.1685V3.79895C52.1685 4.05495 52.2815 4.17096 52.5295 4.17096C52.5915 4.17096 52.6905 4.16495 52.7295 4.15695V4.63895C52.6615 4.65595 52.5265 4.66696 52.3915 4.66696C51.7915 4.66696 51.5575 4.43894 51.5575 3.86694V2.16495H51.1265V1.68295H51.5575V0.980957H52.1685Z" fill="white"/>
<path d="M53.2535 0.581055H53.8565V2.17908H53.8705C54.0335 1.83208 54.3585 1.63208 54.8085 1.63208C55.4595 1.63208 55.8485 2.06606 55.8485 2.73706V4.64807H55.2375V2.85608C55.2375 2.41908 55.0175 2.15707 54.5895 2.15707C54.1385 2.15707 53.8625 2.46706 53.8625 2.93506V4.64807H53.2535V0.581055Z" fill="white"/>
<path d="M58.9765 3.77591C58.8915 4.31691 58.3795 4.70291 57.7005 4.70291C56.8295 4.70291 56.3025 4.11392 56.3025 3.17892C56.3025 2.24892 56.8375 1.62891 57.6745 1.62891C58.4975 1.62891 59.0105 2.20991 59.0105 3.10791V3.31693H56.9165V3.35391C56.9165 3.86991 57.2265 4.21091 57.7135 4.21091C58.0605 4.21091 58.3165 4.03592 58.3985 3.77692H58.9765V3.77591ZM56.9195 2.89191H58.4015C58.3875 2.43791 58.0995 2.1199 57.6745 2.1199C57.2495 2.1189 56.9505 2.44291 56.9195 2.89191Z" fill="white"/>
</svg>
