<svg width="18" height="19" viewBox="0 0 18 19" fill="none" xmlns="http://www.w3.org/2000/svg">
<path d="M2.57143 0.985352C1.15313 0.985352 0 2.13848 0 3.55678V16.4139C0 17.8322 1.15313 18.9854 2.57143 18.9854H6.51696V13.1273H4.39554V9.98535H6.51696V8.63133C6.51696 5.13178 8.1 3.50857 11.5393 3.50857C12.1902 3.50857 13.3152 3.63714 13.7772 3.76571V6.61035C13.5362 6.58624 13.1143 6.57017 12.5879 6.57017C10.9004 6.57017 10.2496 7.20901 10.2496 8.86839V9.98535H13.6085L13.0299 13.1273H10.2455V18.9854H15.4286C16.8469 18.9854 18 17.8322 18 16.4139V3.55678C18 2.13848 16.8469 0.985352 15.4286 0.985352H2.57143Z" fill="white"/>
</svg>
