<svg width="40" height="40" viewBox="0 0 40 40" fill="none" xmlns="http://www.w3.org/2000/svg">
<rect width="40" height="40" rx="16" fill="#477D7C"/>
<mask id="mask0_2191_1435" style="mask-type:alpha" maskUnits="userSpaceOnUse" x="8" y="8" width="24" height="24">
<rect x="8" y="8" width="24" height="24" fill="#D9D9D9"/>
</mask>
<g mask="url(#mask0_2191_1435)">
<path d="M10.6155 17.9135C10.6155 16.4392 10.9286 15.0782 11.5547 13.8307C12.1811 12.5834 13.0263 11.5302 14.0905 10.6712L15.0152 11.8385C14.1242 12.559 13.4181 13.4423 12.897 14.4885C12.376 15.5347 12.1155 16.6763 12.1155 17.9135H10.6155ZM27.8845 17.9135C27.8845 16.6763 27.624 15.5331 27.103 14.4837C26.5818 13.4344 25.8757 12.5494 24.9847 11.8288L25.9095 10.6712C26.9736 11.5302 27.8189 12.5834 28.4452 13.8307C29.0714 15.0782 29.3845 16.4392 29.3845 17.9135H27.8845ZM12.5 26.8845V25.3848H14.3077V17.923C14.3077 16.5782 14.7228 15.3891 15.553 14.3557C16.383 13.3224 17.4486 12.6615 18.75 12.373V11.75C18.75 11.4038 18.8718 11.109 19.1155 10.8655C19.359 10.6218 19.6538 10.5 20 10.5C20.3461 10.5 20.641 10.6218 20.8845 10.8655C21.1281 11.109 21.25 11.4038 21.25 11.75V12.373C22.5513 12.6615 23.617 13.3224 24.447 14.3557C25.2771 15.3891 25.6922 16.5782 25.6922 17.923V25.3848H27.5V26.8845H12.5ZM20 29.6923C19.5013 29.6923 19.0754 29.5157 18.7222 29.1625C18.3689 28.8093 18.1922 28.3833 18.1922 27.8845H21.8077C21.8077 28.3833 21.6311 28.8093 21.2777 29.1625C20.9246 29.5157 20.4986 29.6923 20 29.6923ZM15.8077 25.3848H24.1922V17.923C24.1922 16.7653 23.783 15.7772 22.9645 14.9587C22.1458 14.1401 21.1576 13.7307 20 13.7307C18.8423 13.7307 17.8541 14.1401 17.0355 14.9587C16.217 15.7772 15.8077 16.7653 15.8077 17.923V25.3848Z" fill="#F9F9F9"/>
</g>
</svg>
