<svg width="41" height="40" viewBox="0 0 41 40" fill="none" xmlns="http://www.w3.org/2000/svg">
<rect x="0.5" width="40" height="40" rx="16" fill="#477D7C"/>
<mask id="mask0_2191_1513" style="mask-type:alpha" maskUnits="userSpaceOnUse" x="8" y="8" width="25" height="24">
<rect x="8.5" y="8" width="24" height="24" fill="#D9D9D9"/>
</mask>
<g mask="url(#mask0_2191_1513)">
<path d="M28.1923 27.5H12.8077C12.3026 27.5 11.875 27.325 11.525 26.975C11.175 26.625 11 26.1974 11 25.6923V14.3077C11 13.8026 11.175 13.375 11.525 13.025C11.875 12.675 12.3026 12.5 12.8077 12.5H22.327V14H12.8077C12.7307 14 12.6603 14.0321 12.5963 14.0962C12.5321 14.1602 12.5 14.2308 12.5 14.3077V25.6923C12.5 25.7692 12.5321 25.8398 12.5963 25.9038C12.6603 25.9679 12.7307 26 12.8077 26H28.1923C28.2693 26 28.3398 25.9679 28.4038 25.9038C28.4679 25.8398 28.5 25.7692 28.5 25.6923V19.077H30V25.6923C30 26.1974 29.825 26.625 29.475 26.975C29.125 27.325 28.6974 27.5 28.1923 27.5ZM14.8848 23.673H21.25V21.1923H14.8848V23.673ZM14.8848 18.8078H21.25V16.327H14.8848V18.8078ZM23.6348 23.673H26.1152V19.077H23.6348V23.673ZM26.5 17V15H24.5V13.5H26.5V11.5H28V13.5H30V15H28V17H26.5Z" fill="#F9F9F9"/>
</g>
</svg>
