<svg width="18" height="19" viewBox="0 0 18 19" fill="none" xmlns="http://www.w3.org/2000/svg">
<path fill-rule="evenodd" clip-rule="evenodd" d="M18 3.55678C18 2.13848 16.8469 0.985352 15.4286 0.985352H2.57143C1.15313 0.985352 0 2.13848 0 3.55678V16.4139C0 17.8322 1.15313 18.9854 2.57143 18.9854H15.4286C16.8469 18.9854 18 17.8322 18 16.4139V3.55678ZM2.77232 7.82374V16.4139H5.4442V7.82374H2.77232ZM2.55938 5.10365C2.55938 5.95544 3.25045 6.65053 4.10625 6.65053C4.96205 6.65053 5.65312 5.95946 5.65312 5.10365C5.65312 4.25187 4.95804 3.55678 4.10625 3.55678C3.25045 3.55678 2.55938 4.25187 2.55938 5.10365ZM12.7728 16.4139H15.4406V11.705C15.4406 9.39071 14.9384 7.6108 12.2384 7.6108C10.9406 7.6108 10.0688 8.32196 9.71116 8.99696H9.675V7.82374H7.11563V16.4139H9.78348V12.163C9.78348 11.042 9.99643 9.95723 11.3866 9.95723C12.7527 9.95723 12.7728 11.2389 12.7728 12.2354V16.4139Z" fill="white"/>
</svg>
