<svg width="84" height="53" viewBox="0 0 84 53" fill="none" xmlns="http://www.w3.org/2000/svg">
<path d="M17.9318 6.63636V27H13.3182L5.96023 16.3011H5.84091V27H0.3125V6.63636H5.00568L12.2443 17.2955H12.4034V6.63636H17.9318ZM40.2741 16.8182C40.2741 19.0852 39.8333 20.9976 38.9517 22.5554C38.0701 24.1065 36.8802 25.2831 35.3821 26.0852C33.884 26.8807 32.2135 27.2784 30.3707 27.2784C28.5147 27.2784 26.8376 26.8774 25.3395 26.0753C23.848 25.2666 22.6615 24.0866 21.7798 22.5355C20.9048 20.9777 20.4673 19.072 20.4673 16.8182C20.4673 14.5511 20.9048 12.642 21.7798 11.0909C22.6615 9.53314 23.848 8.35653 25.3395 7.56108C26.8376 6.759 28.5147 6.35795 30.3707 6.35795C32.2135 6.35795 33.884 6.759 35.3821 7.56108C36.8802 8.35653 38.0701 9.53314 38.9517 11.0909C39.8333 12.642 40.2741 14.5511 40.2741 16.8182ZM34.5866 16.8182C34.5866 15.5985 34.4242 14.571 34.0994 13.7358C33.7812 12.8939 33.3073 12.2576 32.6776 11.8267C32.0545 11.3892 31.2855 11.1705 30.3707 11.1705C29.456 11.1705 28.6837 11.3892 28.054 11.8267C27.4309 12.2576 26.9569 12.8939 26.6321 13.7358C26.3139 14.571 26.1548 15.5985 26.1548 16.8182C26.1548 18.0379 26.3139 19.0687 26.6321 19.9105C26.9569 20.7457 27.4309 21.3821 28.054 21.8196C28.6837 22.2505 29.456 22.4659 30.3707 22.4659C31.2855 22.4659 32.0545 22.2505 32.6776 21.8196C33.3073 21.3821 33.7812 20.7457 34.0994 19.9105C34.4242 19.0687 34.5866 18.0379 34.5866 16.8182ZM47.1151 6.63636L51.2912 20.9943H51.4503L55.6264 6.63636H61.8707L55.1491 27H47.5923L40.8707 6.63636H47.1151ZM65.7859 27H59.82L66.5415 6.63636H74.0984L80.82 27H74.854L70.3995 12.2443H70.2404L65.7859 27ZM64.6722 18.9659H75.8881V23.1023H64.6722V18.9659ZM1.28 43C0.89 43 0.59 42.895 0.38 42.685C0.17 42.475 0.065 42.175 0.065 41.785V33.64C0.065 33.25 0.17 32.95 0.38 32.74C0.59 32.53 0.89 32.425 1.28 32.425H6.515C6.815 32.425 7.04 32.505 7.19 32.665C7.35 32.815 7.43 33.035 7.43 33.325C7.43 33.625 7.35 33.855 7.19 34.015C7.04 34.165 6.815 34.24 6.515 34.24H2.285V36.715H6.17C6.48 36.715 6.71 36.795 6.86 36.955C7.02 37.105 7.1 37.33 7.1 37.63C7.1 37.93 7.02 38.16 6.86 38.32C6.71 38.47 6.48 38.545 6.17 38.545H2.285V41.185H6.515C6.815 41.185 7.04 41.265 7.19 41.425C7.35 41.575 7.43 41.795 7.43 42.085C7.43 42.385 7.35 42.615 7.19 42.775C7.04 42.925 6.815 43 6.515 43H1.28ZM9.91309 43.135C9.61309 43.135 9.36309 43.055 9.16309 42.895C8.97309 42.725 8.86309 42.52 8.83309 42.28C8.80309 42.03 8.88309 41.775 9.07309 41.515L12.3881 37.12V38.155L9.20809 33.925C9.01809 33.655 8.93309 33.4 8.95309 33.16C8.98309 32.91 9.09309 32.705 9.28309 32.545C9.48309 32.375 9.72809 32.29 10.0181 32.29C10.2681 32.29 10.4831 32.35 10.6631 32.47C10.8531 32.59 11.0431 32.78 11.2331 33.04L13.7081 36.46H12.9581L15.4181 33.04C15.6081 32.77 15.7981 32.58 15.9881 32.47C16.1781 32.35 16.3981 32.29 16.6481 32.29C16.9481 32.29 17.1931 32.37 17.3831 32.53C17.5831 32.69 17.6931 32.895 17.7131 33.145C17.7431 33.385 17.6581 33.645 17.4581 33.925L14.2631 38.155V37.12L17.5631 41.515C17.7631 41.775 17.8481 42.03 17.8181 42.28C17.7981 42.52 17.6881 42.725 17.4881 42.895C17.2981 43.055 17.0481 43.135 16.7381 43.135C16.4981 43.135 16.2831 43.075 16.0931 42.955C15.9131 42.835 15.7231 42.64 15.5231 42.37L12.9431 38.815H13.7081L11.1281 42.37C10.9381 42.64 10.7481 42.835 10.5581 42.955C10.3681 43.075 10.1531 43.135 9.91309 43.135ZM24.1372 43.165C23.0972 43.165 22.1822 42.94 21.3922 42.49C20.6122 42.03 20.0022 41.39 19.5622 40.57C19.1322 39.75 18.9172 38.795 18.9172 37.705C18.9172 36.875 19.0372 36.13 19.2772 35.47C19.5272 34.8 19.8822 34.23 20.3422 33.76C20.8022 33.28 21.3522 32.91 21.9922 32.65C22.6422 32.39 23.3572 32.26 24.1372 32.26C25.1972 32.26 26.1172 32.485 26.8972 32.935C27.6772 33.385 28.2822 34.02 28.7122 34.84C29.1522 35.65 29.3722 36.6 29.3722 37.69C29.3722 38.52 29.2472 39.27 28.9972 39.94C28.7472 40.61 28.3922 41.185 27.9322 41.665C27.4722 42.145 26.9222 42.515 26.2822 42.775C25.6422 43.035 24.9272 43.165 24.1372 43.165ZM24.1372 41.185C24.7272 41.185 25.2272 41.05 25.6372 40.78C26.0572 40.5 26.3772 40.1 26.5972 39.58C26.8272 39.05 26.9422 38.425 26.9422 37.705C26.9422 36.605 26.6972 35.755 26.2072 35.155C25.7172 34.545 25.0272 34.24 24.1372 34.24C23.5572 34.24 23.0572 34.375 22.6372 34.645C22.2172 34.915 21.8972 35.31 21.6772 35.83C21.4572 36.35 21.3472 36.975 21.3472 37.705C21.3472 38.795 21.5922 39.65 22.0822 40.27C22.5722 40.88 23.2572 41.185 24.1372 41.185ZM32.4907 43.135C32.1107 43.135 31.8207 43.03 31.6207 42.82C31.4207 42.61 31.3207 42.315 31.3207 41.935V33.61C31.3207 33.22 31.4207 32.925 31.6207 32.725C31.8307 32.525 32.1257 32.425 32.5057 32.425H36.1507C37.3307 32.425 38.2407 32.71 38.8807 33.28C39.5207 33.85 39.8407 34.645 39.8407 35.665C39.8407 36.325 39.6957 36.895 39.4057 37.375C39.1157 37.855 38.6957 38.225 38.1457 38.485C37.6057 38.745 36.9407 38.875 36.1507 38.875L36.2707 38.62H36.8857C37.3057 38.62 37.6707 38.725 37.9807 38.935C38.3007 39.135 38.5757 39.445 38.8057 39.865L39.7357 41.59C39.8757 41.84 39.9407 42.085 39.9307 42.325C39.9207 42.565 39.8307 42.76 39.6607 42.91C39.4907 43.06 39.2407 43.135 38.9107 43.135C38.5807 43.135 38.3107 43.065 38.1007 42.925C37.9007 42.785 37.7207 42.57 37.5607 42.28L36.1207 39.625C35.9707 39.345 35.7857 39.155 35.5657 39.055C35.3557 38.955 35.0957 38.905 34.7857 38.905H33.6457V41.935C33.6457 42.315 33.5457 42.61 33.3457 42.82C33.1557 43.03 32.8707 43.135 32.4907 43.135ZM33.6457 37.225H35.7307C36.3507 37.225 36.8157 37.1 37.1257 36.85C37.4457 36.6 37.6057 36.225 37.6057 35.725C37.6057 35.235 37.4457 34.865 37.1257 34.615C36.8157 34.365 36.3507 34.24 35.7307 34.24H33.6457V37.225ZM43.13 43C42.74 43 42.44 42.895 42.23 42.685C42.02 42.475 41.915 42.175 41.915 41.785V33.64C41.915 33.25 42.02 32.95 42.23 32.74C42.44 32.53 42.74 32.425 43.13 32.425H46.055C47.865 32.425 49.26 32.885 50.24 33.805C51.23 34.715 51.725 36.015 51.725 37.705C51.725 38.555 51.595 39.31 51.335 39.97C51.085 40.62 50.72 41.17 50.24 41.62C49.76 42.07 49.17 42.415 48.47 42.655C47.77 42.885 46.965 43 46.055 43H43.13ZM44.24 41.095H45.92C46.49 41.095 46.985 41.025 47.405 40.885C47.825 40.745 48.175 40.535 48.455 40.255C48.735 39.975 48.945 39.625 49.085 39.205C49.225 38.775 49.295 38.275 49.295 37.705C49.295 36.565 49.01 35.72 48.44 35.17C47.88 34.61 47.04 34.33 45.92 34.33H44.24V41.095ZM54.8512 43.135C54.4712 43.135 54.1812 43.03 53.9812 42.82C53.7812 42.61 53.6812 42.315 53.6812 41.935V33.49C53.6812 33.11 53.7812 32.815 53.9812 32.605C54.1812 32.395 54.4712 32.29 54.8512 32.29C55.2212 32.29 55.5062 32.395 55.7062 32.605C55.9062 32.815 56.0062 33.11 56.0062 33.49V41.935C56.0062 42.315 55.9062 42.61 55.7062 42.82C55.5162 43.03 55.2312 43.135 54.8512 43.135ZM62.8143 43.165C62.0643 43.165 61.3993 43.07 60.8193 42.88C60.2493 42.68 59.7693 42.39 59.3793 42.01C58.9893 41.63 58.6943 41.155 58.4943 40.585C58.3043 40.005 58.2093 39.335 58.2093 38.575V33.475C58.2093 33.085 58.3093 32.79 58.5093 32.59C58.7093 32.39 58.9993 32.29 59.3793 32.29C59.7493 32.29 60.0343 32.39 60.2343 32.59C60.4343 32.79 60.5343 33.085 60.5343 33.475V38.59C60.5343 39.45 60.7293 40.1 61.1193 40.54C61.5093 40.97 62.0743 41.185 62.8143 41.185C63.5543 41.185 64.1143 40.97 64.4943 40.54C64.8843 40.1 65.0793 39.45 65.0793 38.59V33.475C65.0793 33.085 65.1793 32.79 65.3793 32.59C65.5793 32.39 65.8643 32.29 66.2343 32.29C66.6043 32.29 66.8843 32.39 67.0743 32.59C67.2743 32.79 67.3743 33.085 67.3743 33.475V38.575C67.3743 39.585 67.1993 40.435 66.8493 41.125C66.5093 41.805 65.9993 42.315 65.3193 42.655C64.6493 42.995 63.8143 43.165 62.8143 43.165ZM70.6618 43.135C70.3218 43.135 70.0618 43.04 69.8818 42.85C69.7018 42.66 69.6118 42.395 69.6118 42.055V33.37C69.6118 33.03 69.7068 32.765 69.8968 32.575C70.0968 32.385 70.3668 32.29 70.7068 32.29C71.0068 32.29 71.2418 32.35 71.4118 32.47C71.5918 32.58 71.7568 32.775 71.9068 33.055L75.3718 39.385H74.8618L78.3268 33.055C78.4768 32.775 78.6368 32.58 78.8068 32.47C78.9868 32.35 79.2218 32.29 79.5118 32.29C79.8518 32.29 80.1118 32.385 80.2918 32.575C80.4818 32.765 80.5768 33.03 80.5768 33.37V42.055C80.5768 42.395 80.4868 42.66 80.3068 42.85C80.1268 43.04 79.8668 43.135 79.5268 43.135C79.1868 43.135 78.9218 43.04 78.7318 42.85C78.5518 42.66 78.4618 42.395 78.4618 42.055V35.98H78.7918L76.0018 40.975C75.8818 41.165 75.7518 41.31 75.6118 41.41C75.4818 41.5 75.3068 41.545 75.0868 41.545C74.8668 41.545 74.6868 41.495 74.5468 41.395C74.4068 41.295 74.2818 41.155 74.1718 40.975L71.3518 35.965H71.7118V42.055C71.7118 42.395 71.6218 42.66 71.4418 42.85C71.2718 43.04 71.0118 43.135 70.6618 43.135Z" fill="white"/>
</svg>
