<svg width="296" height="18" viewBox="0 0 296 18" fill="none" xmlns="http://www.w3.org/2000/svg">
<path d="M104.979 0.632742C104.799 0.246066 104.417 0 103.998 0C103.578 0 103.2 0.246066 103.016 0.632742L100.824 5.28339L95.9291 6.02862C95.5201 6.0919 95.1792 6.38718 95.0531 6.79143C94.9269 7.19568 95.0292 7.64211 95.3223 7.94091L98.8742 11.5651L98.0357 16.6868C97.9675 17.1086 98.138 17.5375 98.4754 17.7871C98.8129 18.0367 99.2594 18.0683 99.6276 17.8679L104.001 15.46L108.374 17.8679C108.742 18.0683 109.189 18.0402 109.527 17.7871C109.864 17.534 110.034 17.1086 109.966 16.6868L109.124 11.5651L112.676 7.94091C112.969 7.64211 113.075 7.19568 112.945 6.79143C112.816 6.38718 112.478 6.0919 112.069 6.02862L107.171 5.28339L104.979 0.632742Z" fill="#EBA055"/>
<path d="M126.979 0.632742C126.799 0.246066 126.417 0 125.998 0C125.578 0 125.2 0.246066 125.016 0.632742L122.824 5.28339L117.929 6.02862C117.52 6.0919 117.179 6.38718 117.053 6.79143C116.927 7.19568 117.029 7.64211 117.322 7.94091L120.874 11.5651L120.036 16.6868C119.968 17.1086 120.138 17.5375 120.475 17.7871C120.813 18.0367 121.259 18.0683 121.628 17.8679L126.001 15.46L130.374 17.8679C130.742 18.0683 131.189 18.0402 131.527 17.7871C131.864 17.534 132.034 17.1086 131.966 16.6868L131.124 11.5651L134.676 7.94091C134.969 7.64211 135.075 7.19568 134.945 6.79143C134.816 6.38718 134.478 6.0919 134.069 6.02862L129.171 5.28339L126.979 0.632742Z" fill="#EBA055"/>
<path d="M148.979 0.632742C148.799 0.246066 148.417 0 147.998 0C147.578 0 147.2 0.246066 147.016 0.632742L144.824 5.28339L139.929 6.02862C139.52 6.0919 139.179 6.38718 139.053 6.79143C138.927 7.19568 139.029 7.64211 139.322 7.94091L142.874 11.5651L142.036 16.6868C141.968 17.1086 142.138 17.5375 142.475 17.7871C142.813 18.0367 143.259 18.0683 143.628 17.8679L148.001 15.46L152.374 17.8679C152.742 18.0683 153.189 18.0402 153.527 17.7871C153.864 17.534 154.034 17.1086 153.966 16.6868L153.124 11.5651L156.676 7.94091C156.969 7.64211 157.075 7.19568 156.945 6.79143C156.816 6.38718 156.478 6.0919 156.069 6.02862L151.171 5.28339L148.979 0.632742Z" fill="#EBA055"/>
<path d="M170.979 0.632742C170.799 0.246066 170.417 0 169.998 0C169.578 0 169.2 0.246066 169.016 0.632742L166.824 5.28339L161.929 6.02862C161.52 6.0919 161.179 6.38718 161.053 6.79143C160.927 7.19568 161.029 7.64211 161.322 7.94091L164.874 11.5651L164.036 16.6868C163.968 17.1086 164.138 17.5375 164.475 17.7871C164.813 18.0367 165.259 18.0683 165.628 17.8679L170.001 15.46L174.374 17.8679C174.742 18.0683 175.189 18.0402 175.527 17.7871C175.864 17.534 176.034 17.1086 175.966 16.6868L175.124 11.5651L178.676 7.94091C178.969 7.64211 179.075 7.19568 178.945 6.79143C178.816 6.38718 178.478 6.0919 178.069 6.02862L173.171 5.28339L170.979 0.632742Z" fill="#EBA055"/>
<path d="M192.979 0.632742C192.799 0.246066 192.417 0 191.998 0C191.578 0 191.2 0.246066 191.016 0.632742L188.824 5.28339L183.929 6.02862C183.52 6.0919 183.179 6.38718 183.053 6.79143C182.927 7.19568 183.029 7.64211 183.322 7.94091L186.874 11.5651L186.036 16.6868C185.968 17.1086 186.138 17.5375 186.475 17.7871C186.813 18.0367 187.259 18.0683 187.628 17.8679L192.001 15.46L196.374 17.8679C196.742 18.0683 197.189 18.0402 197.527 17.7871C197.864 17.534 198.034 17.1086 197.966 16.6868L197.124 11.5651L200.676 7.94091C200.969 7.64211 201.075 7.19568 200.945 6.79143C200.816 6.38718 200.478 6.0919 200.069 6.02862L195.171 5.28339L192.979 0.632742Z" fill="#EBA055"/>
</svg>
