<svg width="41" height="40" viewBox="0 0 41 40" fill="none" xmlns="http://www.w3.org/2000/svg">
<rect x="0.5" width="40" height="40" rx="16" fill="#477D7C"/>
<mask id="mask0_2191_1135" style="mask-type:alpha" maskUnits="userSpaceOnUse" x="8" y="8" width="25" height="24">
<rect x="8.5" y="8" width="24" height="24" fill="#D9D9D9"/>
</mask>
<g mask="url(#mask0_2191_1135)">
<path d="M19.35 24.2192L24.6443 18.9L23.6 17.8557L19.35 22.0963L17.225 19.9808L16.1558 21.05L19.35 24.2192ZM12.8077 27.5C12.3026 27.5 11.875 27.325 11.525 26.975C11.175 26.625 11 26.1974 11 25.6923V14.3077C11 13.8026 11.175 13.375 11.525 13.025C11.875 12.675 12.3026 12.5 12.8077 12.5H18.298L20.298 14.5H28.1923C28.6974 14.5 29.125 14.675 29.475 15.025C29.825 15.375 30 15.8026 30 16.3077V25.6923C30 26.1974 29.825 26.625 29.475 26.975C29.125 27.325 28.6974 27.5 28.1923 27.5H12.8077ZM12.8077 26H28.1923C28.2821 26 28.3558 25.9712 28.4135 25.9135C28.4712 25.8558 28.5 25.7821 28.5 25.6923V16.3077C28.5 16.2179 28.4712 16.1442 28.4135 16.0865C28.3558 16.0288 28.2821 16 28.1923 16H19.6845L17.6845 14H12.8077C12.7179 14 12.6442 14.0288 12.5865 14.0865C12.5288 14.1442 12.5 14.2179 12.5 14.3077V25.6923C12.5 25.7821 12.5288 25.8558 12.5865 25.9135C12.6442 25.9712 12.7179 26 12.8077 26Z" fill="#F9F9F9"/>
</g>
</svg>
