<svg width="18" height="19" viewBox="0 0 18 19" fill="none" xmlns="http://www.w3.org/2000/svg">
<path d="M7.81071 8.20544C7.57671 8.36188 7.37581 8.56289 7.21949 8.79697C7.06316 9.03105 6.95447 9.29364 6.89963 9.56973C6.78887 10.1273 6.90414 10.7061 7.22009 11.1787C7.53604 11.6512 8.02679 11.979 8.58437 12.0897C9.14196 12.2005 9.72071 12.0852 10.1933 11.7693C10.6659 11.4533 10.9936 10.9626 11.1044 10.405C11.2152 9.84741 11.0999 9.26866 10.7839 8.79607C10.468 8.32347 9.97723 7.99574 9.41964 7.88498C8.86206 7.77422 8.28331 7.88949 7.81071 8.20544ZM13.5281 5.45723C13.3192 5.2483 13.0661 5.08357 12.7888 4.97508C12.0616 4.68982 10.4746 4.70187 9.45 4.71392C9.28527 4.71392 9.13259 4.71794 9 4.71794C8.86741 4.71794 8.71071 4.71794 8.54196 4.71392C7.51741 4.70187 5.93839 4.6858 5.21116 4.97508C4.93393 5.08357 4.68482 5.2483 4.47188 5.45723C4.25893 5.66616 4.09821 5.91928 3.98973 6.19651C3.70446 6.92374 3.72054 8.51482 3.72857 9.53937C3.72857 9.7041 3.73259 9.85678 3.73259 9.98535C3.73259 10.1139 3.73259 10.2666 3.72857 10.4313C3.72054 11.4559 3.70446 13.047 3.98973 13.7742C4.09821 14.0514 4.26295 14.3005 4.47188 14.5135C4.6808 14.7264 4.93393 14.8871 5.21116 14.9956C5.93839 15.2809 7.52545 15.2688 8.55 15.2568C8.71473 15.2568 8.86741 15.2528 9 15.2528C9.13259 15.2528 9.28929 15.2528 9.45804 15.2568C10.4826 15.2688 12.0616 15.2849 12.7888 14.9956C13.0661 14.8871 13.3152 14.7224 13.5281 14.5135C13.7411 14.3045 13.9018 14.0514 14.0103 13.7742C14.2996 13.051 14.2835 11.4679 14.2714 10.4394C14.2714 10.2706 14.2674 10.1139 14.2674 9.98133C14.2674 9.84874 14.2674 9.69607 14.2714 9.5233C14.2835 8.49874 14.2996 6.91571 14.0103 6.18848C13.9018 5.91124 13.7371 5.66214 13.5281 5.44919V5.45723ZM10.8321 7.24517C11.5589 7.73109 12.0628 8.4858 12.2331 9.34327C12.4034 10.2008 12.2261 11.0908 11.7402 11.8175C11.4996 12.1773 11.1905 12.4863 10.8305 12.7267C10.4705 12.967 10.0667 13.1342 9.64208 13.2185C8.7846 13.3888 7.8946 13.2114 7.16786 12.7255C6.44112 12.2401 5.93696 11.4859 5.76629 10.6288C5.59563 9.77175 5.77243 8.88196 6.25781 8.15522C6.74319 7.42848 7.49739 6.92432 8.35449 6.75365C9.21159 6.58299 10.1014 6.75979 10.8281 7.24517H10.8321ZM12.0054 7.19294C11.8808 7.10857 11.7804 6.98803 11.7201 6.8474C11.6598 6.70678 11.6478 6.5541 11.6759 6.40142C11.704 6.24874 11.7804 6.11616 11.8848 6.00767C11.9893 5.89919 12.1299 5.82687 12.2786 5.79874C12.4272 5.77062 12.5839 5.78267 12.7246 5.84294C12.8652 5.90321 12.9857 5.99964 13.0701 6.12419C13.1545 6.24874 13.1987 6.39741 13.1987 6.55008C13.1987 6.65053 13.1786 6.75098 13.1424 6.84339C13.1062 6.9358 13.046 7.02017 12.9777 7.09249C12.9094 7.16482 12.821 7.22107 12.7286 7.26124C12.6362 7.30142 12.5357 7.32151 12.4353 7.32151C12.2826 7.32151 12.1339 7.27732 12.0094 7.19294H12.0054ZM18 3.55678C18 2.13848 16.8469 0.985352 15.4286 0.985352H2.57143C1.15313 0.985352 0 2.13848 0 3.55678V16.4139C0 17.8322 1.15313 18.9854 2.57143 18.9854H15.4286C16.8469 18.9854 18 17.8322 18 16.4139V3.55678ZM14.3438 15.3291C13.5924 16.0804 12.6804 16.3175 11.6518 16.3697C10.5911 16.43 7.40893 16.43 6.34821 16.3697C5.31964 16.3175 4.40759 16.0804 3.65625 15.3291C2.90491 14.5778 2.66786 13.6657 2.61964 12.6371C2.55937 11.5764 2.55937 8.39428 2.61964 7.33357C2.67187 6.30499 2.90491 5.39294 3.65625 4.6416C4.40759 3.89026 5.32366 3.65321 6.34821 3.60499C7.40893 3.54473 10.5911 3.54473 11.6518 3.60499C12.6804 3.65723 13.5924 3.89026 14.3438 4.6416C15.0951 5.39294 15.3321 6.30499 15.3804 7.33357C15.4406 8.39026 15.4406 11.5684 15.3804 12.6331C15.3281 13.6617 15.0951 14.5737 14.3438 15.3251V15.3291Z" fill="white"/>
</svg>
