<svg width="74" height="27" viewBox="0 0 74 27" fill="none" xmlns="http://www.w3.org/2000/svg">
<g clip-path="url(#clip0_2181_21252)">
<path d="M70.4449 1.66211C72.0769 1.66211 73.4019 2.98812 73.4019 4.62012V23.3511C73.4019 24.9831 72.0759 26.3091 70.4449 26.3091H3.55591C1.92391 26.3091 0.5979 24.9831 0.5979 23.3511V4.62012C0.5979 2.98812 1.92391 1.66211 3.55591 1.66211H70.4449ZM70.4449 1.16211H3.55591C1.64991 1.16211 0.0979004 2.71312 0.0979004 4.62012V23.3511C0.0979004 25.2571 1.64891 26.8091 3.55591 26.8091H70.4449C72.3509 26.8091 73.9019 25.2581 73.9019 23.3511V4.62012C73.9019 2.71312 72.3509 1.16211 70.4449 1.16211Z" fill="white"/>
<path d="M66.6258 15.6005L65.5398 18.3655H65.5068L64.3738 15.6005H63.3499L65.0468 19.4655L64.0768 21.6155H65.0718L67.6878 15.6015H66.6258V15.6005ZM58.9548 13.3065H58.0068V19.6825H58.9548V13.3065ZM55.3868 13.3065H53.1068V19.6825H54.0618V17.2685H55.3898C56.5068 17.3065 57.4428 16.4325 57.4808 15.3165C57.4808 15.3075 57.4818 15.2985 57.4818 15.2895C57.4588 14.1705 56.5328 13.2825 55.4138 13.3055C55.4048 13.3065 55.3958 13.3065 55.3868 13.3065ZM55.4118 16.3785H54.0618V14.2075H55.4148C56.0148 14.2075 56.5008 14.6935 56.5008 15.2935C56.5008 15.8935 56.0148 16.3795 55.4148 16.3795H55.4118V16.3785ZM61.2918 15.4635C60.5818 15.4225 59.9158 15.8065 59.5948 16.4405L60.4418 16.8025C60.6128 16.4885 60.9548 16.3065 61.3098 16.3395C61.8108 16.2895 62.2578 16.6545 62.3078 17.1555C62.3078 17.1575 62.3078 17.1585 62.3078 17.1605V17.2255C62.0048 17.0615 61.6648 16.9755 61.3198 16.9755C60.4118 16.9755 59.4848 17.4745 59.4848 18.4225C59.4848 19.2765 60.2268 19.8265 61.0658 19.8265C61.5528 19.8575 62.0168 19.6185 62.2748 19.2045H62.3109V19.6965H63.2368V17.2435C63.2368 16.1105 62.3898 15.4815 61.2968 15.4815L61.2918 15.4635ZM61.1798 18.9595C60.8688 18.9595 60.4348 18.8005 60.4348 18.4165C60.4348 17.9245 60.9738 17.7365 61.4448 17.7365C61.7478 17.7285 62.0478 17.8025 62.3128 17.9505C62.2398 18.5215 61.7568 18.9525 61.1798 18.9595ZM26.8678 19.8205C24.9938 19.8265 23.4638 18.3255 23.4338 16.4515C23.4638 14.5775 24.9938 13.0765 26.8678 13.0825C27.7348 13.0685 28.5708 13.4035 29.1878 14.0125L28.5328 14.6605C28.0888 14.2255 27.4898 13.9835 26.8678 13.9875C25.5148 13.9875 24.4178 15.0845 24.4178 16.4375C24.4178 17.7905 25.5148 18.8875 26.8678 18.8875C27.5068 18.9135 28.1278 18.6675 28.5758 18.2105C28.8708 17.8925 29.0478 17.4845 29.0788 17.0525H26.8678V16.1585H29.9798C30.0138 16.3485 30.0298 16.5415 30.0268 16.7335C30.0578 17.5345 29.7708 18.3155 29.2268 18.9045C28.6058 19.5315 27.7478 19.8645 26.8678 19.8205ZM34.8398 17.6495C34.8888 18.8355 33.9668 19.8365 32.7798 19.8855C31.5928 19.9345 30.5928 19.0125 30.5438 17.8255C30.5418 17.7665 30.5418 17.7075 30.5438 17.6495C30.4948 16.4635 31.4169 15.4625 32.6039 15.4135C33.7899 15.3645 34.7908 16.2865 34.8398 17.4735C34.8418 17.5315 34.8418 17.5905 34.8398 17.6495ZM33.8988 17.6495C33.9618 16.9825 33.4728 16.3915 32.8068 16.3285C32.1398 16.2655 31.5488 16.7545 31.4858 17.4205C31.4788 17.4965 31.4788 17.5735 31.4858 17.6495C31.4228 18.3165 31.9118 18.9075 32.5779 18.9705C33.2449 19.0335 33.8358 18.5445 33.8988 17.8785C33.9058 17.8025 33.9058 17.7255 33.8988 17.6495ZM39.6518 17.6495C39.6518 18.8345 38.6908 19.7955 37.5058 19.7955C36.3208 19.7955 35.3598 18.8345 35.3598 17.6495C35.3598 16.4645 36.3208 15.5035 37.5058 15.5035C38.6918 15.5035 39.6518 16.4635 39.6518 17.6495ZM38.7148 17.6495C38.7778 16.9825 38.2888 16.3915 37.6228 16.3285C36.9568 16.2655 36.3648 16.7545 36.3018 17.4205C36.2948 17.4965 36.2948 17.5735 36.3018 17.6495C36.2388 18.3165 36.7278 18.9075 37.3938 18.9705C38.0608 19.0335 38.6518 18.5445 38.7148 17.8785C38.7218 17.8025 38.7218 17.7255 38.7148 17.6495ZM44.3499 15.6115V19.5085C44.3499 21.1075 43.3978 21.7665 42.2758 21.7665C41.4348 21.7735 40.6728 21.2735 40.3438 20.4995L41.1648 20.1375C41.3388 20.5895 41.7668 20.8925 42.2508 20.9085C42.9748 20.9085 43.4158 20.4635 43.4158 19.6345V19.3235H43.3799C43.0929 19.6435 42.6808 19.8245 42.2508 19.8195C41.0518 19.8195 40.0798 18.8475 40.0798 17.6485C40.0798 16.4495 41.0518 15.4775 42.2508 15.4775C42.6838 15.4675 43.0998 15.6445 43.3938 15.9625H43.4298V15.6005H44.3488V15.6115H44.3499ZM43.5058 17.6595C43.5608 16.9845 43.0578 16.3925 42.3828 16.3375C42.3698 16.3365 42.3578 16.3355 42.3448 16.3345C41.6498 16.3575 41.1048 16.9395 41.1278 17.6345C41.1278 17.6425 41.1288 17.6505 41.1288 17.6585C41.0968 18.3475 41.6288 18.9315 42.3178 18.9635C42.3268 18.9635 42.3358 18.9645 42.3448 18.9645C43.0138 18.9385 43.5348 18.3755 43.5089 17.7065C43.5089 17.6915 43.5078 17.6755 43.5058 17.6595ZM46.0248 13.3135V19.6865H45.0698V13.3135H46.0248ZM49.7878 18.3655L50.5328 18.8575C50.1288 19.4605 49.4498 19.8215 48.7238 19.8205C47.5628 19.8375 46.6078 18.9095 46.5918 17.7485C46.5918 17.7155 46.5918 17.6825 46.5928 17.6495C46.4978 16.5505 47.3108 15.5825 48.4108 15.4865C49.3368 15.4065 50.1968 15.9755 50.4838 16.8605L50.5818 17.1105L47.6868 18.3085C47.8718 18.7235 48.2898 18.9845 48.7438 18.9675C49.1708 18.9595 49.5668 18.7325 49.7878 18.3655ZM47.5049 17.5835L49.4518 16.7805C49.2978 16.4795 48.9788 16.2985 48.6408 16.3205C47.9838 16.3495 47.4748 16.9055 47.5038 17.5615C47.5038 17.5695 47.5049 17.5765 47.5049 17.5835Z" fill="white"/>
<path d="M11.999 13.9871L6.31104 19.6V8.37305L11.999 13.9871Z" fill="white"/>
<path d="M15.4069 17.3497L8.81387 21.1047C8.69287 21.1747 8.56386 21.2297 8.42886 21.2677C7.68286 21.4777 6.91387 21.1477 6.53687 20.5117L12.5749 14.5537L15.4069 17.3497Z" fill="white"/>
<path d="M15.3989 10.6327L12.5749 13.4197L6.53589 7.4607C6.83089 6.9597 7.37591 6.63767 7.97891 6.63867C8.28091 6.63967 8.57689 6.72068 8.83789 6.87268L15.3989 10.6327Z" fill="white"/>
<path d="M18.7519 15.4468L16.1399 16.9378L13.1489 13.9868L16.1259 11.0498L18.7609 12.5588H18.7519C19.0459 12.7128 19.2859 12.9528 19.4399 13.2468C19.8579 14.0438 19.5499 15.0298 18.7519 15.4468Z" fill="white"/>
<path d="M25.0439 10.8986C24.0619 10.8986 23.4329 10.1826 23.4329 9.06363C23.4329 7.96463 24.0589 7.26562 25.0439 7.26562C25.8039 7.26562 26.3819 7.71662 26.5129 8.41562H26.0519C25.9059 7.94062 25.5379 7.66962 25.0429 7.66962C24.3189 7.66962 23.8829 8.19061 23.8829 9.06061C23.8829 9.94461 24.3259 10.4936 25.0429 10.4936C25.6669 10.4936 26.0959 10.0896 26.0959 9.49963V9.43661H25.1039V9.05161H26.5339V9.38562C26.5349 10.3356 25.9819 10.8986 25.0439 10.8986Z" fill="white"/>
<path d="M29.274 10.8402H27.0959V7.32422H29.274V7.71921H27.534V8.84723H29.184V9.23721H27.534V10.4462H29.274V10.8402Z" fill="white"/>
<path d="M30.7408 10.8402V7.71921H29.6318V7.32422H32.2878V7.71921H31.1788V10.8402H30.7408Z" fill="white"/>
<path d="M33.7749 10.8402V7.32422H34.2139V10.8402H33.7749Z" fill="white"/>
<path d="M34.896 10.8402V7.32422H35.322L37.247 10.0852H37.269V7.32422H37.703V10.8402H37.277L35.352 8.08923H35.33V10.8402H34.896Z" fill="white"/>
<path d="M42.513 9.08362C42.513 10.1996 41.889 10.8986 40.893 10.8986C39.897 10.8986 39.2729 10.1996 39.2729 9.08362C39.2729 7.96762 39.897 7.26562 40.893 7.26562C41.889 7.26562 42.513 7.96762 42.513 9.08362ZM39.723 9.08362C39.723 9.94862 40.174 10.4946 40.893 10.4946C41.612 10.4946 42.063 9.94862 42.063 9.08362C42.063 8.21662 41.612 7.67062 40.893 7.67062C40.174 7.67062 39.723 8.21662 39.723 9.08362Z" fill="white"/>
<path d="M43.0588 10.8402V7.32422H43.4848L45.4099 10.0852H45.4318V7.32422H45.8658V10.8402H45.4398L43.5148 8.08923H43.4928V10.8402H43.0588Z" fill="white"/>
</g>
<defs>
<clipPath id="clip0_2181_21252">
<rect width="74" height="26" fill="white" transform="translate(0 0.985352)"/>
</clipPath>
</defs>
</svg>
