<svg width="18" height="19" viewBox="0 0 18 19" fill="none" xmlns="http://www.w3.org/2000/svg">
<path d="M2.57143 0.985352C1.15313 0.985352 0 2.13848 0 3.55678V16.4139C0 17.8322 1.15313 18.9854 2.57143 18.9854H15.4286C16.8469 18.9854 18 17.8322 18 16.4139V3.55678C18 2.13848 16.8469 0.985352 15.4286 0.985352H2.57143ZM14.5085 4.36035L10.3379 9.12553L15.2437 15.6104H11.4027L8.39732 11.6769L4.95402 15.6104H3.04554L7.50536 10.5117L2.80045 4.36035H6.73795L9.45804 7.95633L12.6 4.36035H14.5085ZM12.9897 14.4693L6.16339 5.44115H5.02634L11.929 14.4693H12.9857H12.9897Z" fill="white"/>
</svg>
