<svg width="18" height="19" viewBox="0 0 18 19" fill="none" xmlns="http://www.w3.org/2000/svg">
<path d="M11.3304 9.99339L7.50536 7.81973V12.167L11.3304 9.99339ZM15.4286 0.985352H2.57143C1.15313 0.985352 0 2.13848 0 3.55678V16.4139C0 17.8322 1.15313 18.9854 2.57143 18.9854H15.4286C16.8469 18.9854 18 17.8322 18 16.4139V3.55678C18 2.13848 16.8469 0.985352 15.4286 0.985352ZM16.0071 6.45366C16.3125 7.60276 16.3125 9.9974 16.3125 9.9974C16.3125 9.9974 16.3125 12.392 16.0071 13.5371C15.8384 14.172 15.3442 14.6501 14.7134 14.8188C13.5763 15.1282 9 15.1282 9 15.1282C9 15.1282 4.42366 15.1282 3.28661 14.8229C2.6558 14.6541 2.16161 14.176 1.99286 13.5412C1.6875 12.392 1.6875 9.9974 1.6875 9.9974C1.6875 9.9974 1.6875 7.59874 1.99286 6.45366C2.16161 5.81883 2.6558 5.32062 3.28661 5.15187C4.42366 4.84249 9 4.84249 9 4.84249C9 4.84249 13.5763 4.84249 14.7134 5.15187C15.3442 5.32062 15.8384 5.81883 16.0071 6.45366Z" fill="white"/>
</svg>
