<svg width="124" height="41" viewBox="0 0 124 41" fill="none" xmlns="http://www.w3.org/2000/svg">
<g clip-path="url(#clip0_7_693)">
<rect y="0.827637" width="124" height="40" rx="20" fill="#12181A"/>
<path d="M20.3008 25.8276V15.7316H16.9568V14.6276H24.9888V15.7316H21.6448V25.8276H20.3008ZM28.6257 26.0196C27.8683 26.0196 27.1963 25.8436 26.6097 25.4916C26.0337 25.1396 25.5803 24.649 25.2497 24.0196C24.919 23.3796 24.7537 22.6383 24.7537 21.7956C24.7537 20.9423 24.9137 20.201 25.2337 19.5716C25.5643 18.9423 26.023 18.4516 26.6097 18.0996C27.207 17.7476 27.8897 17.5716 28.6577 17.5716C29.447 17.5716 30.1137 17.7476 30.6577 18.0996C31.2123 18.4516 31.6337 18.9156 31.9217 19.4916C32.2203 20.057 32.3697 20.681 32.3697 21.3636C32.3697 21.4703 32.3697 21.5823 32.3697 21.6996C32.3697 21.817 32.3643 21.9503 32.3537 22.0996H25.7617V21.0596H31.0577C31.0257 20.3236 30.7803 19.7476 30.3217 19.3316C29.8737 18.9156 29.3083 18.7076 28.6257 18.7076C28.167 18.7076 27.7403 18.8143 27.3457 19.0276C26.9617 19.2303 26.6523 19.5343 26.4177 19.9396C26.183 20.3343 26.0657 20.8303 26.0657 21.4276V21.8756C26.0657 22.537 26.183 23.0916 26.4177 23.5396C26.663 23.9876 26.9777 24.3236 27.3617 24.5476C27.7563 24.7716 28.1777 24.8836 28.6257 24.8836C29.191 24.8836 29.655 24.761 30.0177 24.5156C30.391 24.2596 30.6577 23.9183 30.8177 23.4916H32.1457C32.0177 23.9716 31.7937 24.4036 31.4737 24.7876C31.1537 25.1716 30.7537 25.4756 30.2737 25.6996C29.8043 25.913 29.255 26.0196 28.6257 26.0196ZM37.185 26.0196C36.513 26.0196 35.9264 25.9076 35.425 25.6836C34.9344 25.4596 34.5397 25.1503 34.241 24.7556C33.953 24.3503 33.777 23.8756 33.713 23.3316H35.089C35.1424 23.609 35.2544 23.865 35.425 24.0996C35.5957 24.3343 35.825 24.5263 36.113 24.6756C36.4117 24.8143 36.7744 24.8836 37.201 24.8836C37.5744 24.8836 37.8837 24.8303 38.129 24.7236C38.3744 24.6063 38.5557 24.4516 38.673 24.2596C38.801 24.0676 38.865 23.8596 38.865 23.6356C38.865 23.305 38.785 23.0543 38.625 22.8836C38.4757 22.713 38.2517 22.5796 37.953 22.4836C37.6544 22.377 37.2917 22.2863 36.865 22.2116C36.513 22.1476 36.1664 22.0623 35.825 21.9556C35.4837 21.849 35.1797 21.7103 34.913 21.5396C34.6464 21.3583 34.433 21.1396 34.273 20.8836C34.1237 20.6276 34.049 20.313 34.049 19.9396C34.049 19.481 34.1664 19.0756 34.401 18.7236C34.6357 18.361 34.9717 18.0783 35.409 17.8756C35.857 17.673 36.3744 17.5716 36.961 17.5716C37.825 17.5716 38.5237 17.7796 39.057 18.1956C39.5904 18.6116 39.905 19.2143 40.001 20.0036H38.673C38.6197 19.5983 38.4437 19.2836 38.145 19.0596C37.857 18.825 37.457 18.7076 36.945 18.7076C36.4437 18.7076 36.0597 18.809 35.793 19.0116C35.537 19.2143 35.409 19.481 35.409 19.8116C35.409 20.025 35.4784 20.217 35.617 20.3876C35.7664 20.5476 35.9797 20.6863 36.257 20.8036C36.545 20.921 36.897 21.017 37.313 21.0916C37.8464 21.1876 38.3317 21.3156 38.769 21.4756C39.2064 21.6356 39.5584 21.8756 39.825 22.1956C40.1024 22.505 40.241 22.9476 40.241 23.5236C40.241 24.025 40.113 24.4623 39.857 24.8356C39.6117 25.209 39.2597 25.5023 38.801 25.7156C38.3424 25.9183 37.8037 26.0196 37.185 26.0196ZM44.9465 25.8276C44.4665 25.8276 44.0505 25.753 43.6985 25.6036C43.3465 25.4543 43.0745 25.2036 42.8825 24.8516C42.7012 24.489 42.6105 24.0036 42.6105 23.3956V18.8996H41.2025V17.7636H42.6105L42.7865 15.8116H43.9545V17.7636H46.2905V18.8996H43.9545V23.3956C43.9545 23.897 44.0558 24.2383 44.2585 24.4196C44.4612 24.5903 44.8185 24.6756 45.3305 24.6756H46.1945V25.8276H44.9465ZM48.1337 25.8276V17.7636H49.4777V25.8276H48.1337ZM48.8057 16.0516C48.5391 16.0516 48.3151 15.9663 48.1337 15.7956C47.9631 15.6143 47.8777 15.3903 47.8777 15.1236C47.8777 14.857 47.9631 14.6436 48.1337 14.4836C48.3151 14.313 48.5391 14.2276 48.8057 14.2276C49.0617 14.2276 49.2804 14.313 49.4617 14.4836C49.6431 14.6436 49.7337 14.857 49.7337 15.1236C49.7337 15.3903 49.6431 15.6143 49.4617 15.7956C49.2804 15.9663 49.0617 16.0516 48.8057 16.0516ZM51.8111 25.8276V17.7636H53.0271L53.1071 18.9156C53.3631 18.4996 53.7044 18.1743 54.1311 17.9396C54.5684 17.6943 55.0431 17.5716 55.5551 17.5716C55.9711 17.5716 56.3444 17.6303 56.6751 17.7476C57.0164 17.8543 57.3151 18.025 57.5711 18.2596C57.8271 18.4836 58.0351 18.7716 58.1951 19.1236C58.4724 18.633 58.8511 18.2543 59.3311 17.9876C59.8217 17.7103 60.3444 17.5716 60.8991 17.5716C61.5177 17.5716 62.0564 17.6996 62.5151 17.9556C62.9844 18.201 63.3417 18.5796 63.5871 19.0916C63.8431 19.593 63.9711 20.233 63.9711 21.0116V25.8276H62.6431V21.1556C62.6431 20.345 62.4777 19.737 62.1471 19.3316C61.8164 18.9263 61.3524 18.7236 60.7551 18.7236C60.3391 18.7236 59.9657 18.8356 59.6351 19.0596C59.3044 19.273 59.0431 19.5876 58.8511 20.0036C58.6591 20.4196 58.5631 20.9316 58.5631 21.5396V25.8276H57.2191V21.1556C57.2191 20.345 57.0537 19.737 56.7231 19.3316C56.3924 18.9263 55.9231 18.7236 55.3151 18.7236C54.9097 18.7236 54.5417 18.8356 54.2111 19.0596C53.8911 19.273 53.6351 19.5876 53.4431 20.0036C53.2511 20.4196 53.1551 20.9316 53.1551 21.5396V25.8276H51.8111ZM69.6227 26.0196C68.876 26.0196 68.204 25.849 67.6067 25.5076C67.0093 25.1556 66.54 24.665 66.1987 24.0356C65.8573 23.3956 65.6867 22.6543 65.6867 21.8116C65.6867 20.9476 65.8573 20.201 66.1987 19.5716C66.5507 18.9316 67.0253 18.441 67.6227 18.0996C68.2307 17.7476 68.908 17.5716 69.6547 17.5716C70.4227 17.5716 71.1 17.7476 71.6867 18.0996C72.284 18.441 72.7533 18.9316 73.0947 19.5716C73.4467 20.201 73.6227 20.9423 73.6227 21.7956C73.6227 22.649 73.4467 23.3956 73.0947 24.0356C72.7427 24.665 72.268 25.1556 71.6707 25.5076C71.0733 25.849 70.3907 26.0196 69.6227 26.0196ZM69.6387 24.8676C70.0973 24.8676 70.524 24.7556 70.9187 24.5316C71.3133 24.297 71.6333 23.9503 71.8787 23.4916C72.124 23.033 72.2467 22.4676 72.2467 21.7956C72.2467 21.113 72.124 20.5476 71.8787 20.0996C71.644 19.641 71.3293 19.2996 70.9347 19.0756C70.5507 18.841 70.124 18.7236 69.6547 18.7236C69.2067 18.7236 68.78 18.841 68.3747 19.0756C67.98 19.2996 67.66 19.641 67.4147 20.0996C67.18 20.5476 67.0627 21.113 67.0627 21.7956C67.0627 22.4676 67.18 23.033 67.4147 23.4916C67.66 23.9503 67.9747 24.297 68.3587 24.5316C68.7533 24.7556 69.18 24.8676 69.6387 24.8676ZM75.4687 25.8276V17.7636H76.6847L76.7487 19.1716C77.0047 18.6703 77.3673 18.281 77.8367 18.0036C78.3167 17.7156 78.8607 17.5716 79.4687 17.5716C80.098 17.5716 80.642 17.6996 81.1007 17.9556C81.5593 18.201 81.9167 18.5796 82.1727 19.0916C82.4287 19.593 82.5567 20.233 82.5567 21.0116V25.8276H81.2127V21.1556C81.2127 20.345 81.0313 19.737 80.6687 19.3316C80.3167 18.9263 79.8153 18.7236 79.1647 18.7236C78.7167 18.7236 78.3167 18.8356 77.9647 19.0596C77.6127 19.273 77.33 19.5876 77.1167 20.0036C76.914 20.409 76.8127 20.9156 76.8127 21.5236V25.8276H75.4687ZM84.7458 25.8276V17.7636H86.0898V25.8276H84.7458ZM85.4178 16.0516C85.1511 16.0516 84.9271 15.9663 84.7458 15.7956C84.5751 15.6143 84.4898 15.3903 84.4898 15.1236C84.4898 14.857 84.5751 14.6436 84.7458 14.4836C84.9271 14.313 85.1511 14.2276 85.4178 14.2276C85.6738 14.2276 85.8924 14.313 86.0738 14.4836C86.2551 14.6436 86.3458 14.857 86.3458 15.1236C86.3458 15.3903 86.2551 15.6143 86.0738 15.7956C85.8924 15.9663 85.6738 16.0516 85.4178 16.0516ZM91.0471 26.0196C90.3964 26.0196 89.8524 25.9076 89.4151 25.6836C88.9778 25.449 88.6524 25.145 88.4391 24.7716C88.2258 24.3876 88.1191 23.9716 88.1191 23.5236C88.1191 22.9796 88.2578 22.521 88.5351 22.1476C88.8231 21.7636 89.2231 21.4756 89.7351 21.2836C90.2578 21.081 90.8711 20.9796 91.5751 20.9796H93.7031C93.7031 20.4783 93.6231 20.0623 93.4631 19.7316C93.3138 19.3903 93.0898 19.1343 92.7911 18.9636C92.5031 18.793 92.1404 18.7076 91.7031 18.7076C91.1911 18.7076 90.7484 18.8356 90.3751 19.0916C90.0018 19.3476 89.7724 19.7263 89.6871 20.2276H88.3111C88.3751 19.6516 88.5671 19.1716 88.8871 18.7876C89.2178 18.393 89.6338 18.0943 90.1351 17.8916C90.6364 17.6783 91.1591 17.5716 91.7031 17.5716C92.4498 17.5716 93.0684 17.7103 93.5591 17.9876C94.0604 18.2543 94.4338 18.633 94.6791 19.1236C94.9244 19.6036 95.0471 20.1743 95.0471 20.8356V25.8276H93.8471L93.7671 24.4036C93.6604 24.6276 93.5218 24.841 93.3511 25.0436C93.1911 25.2356 92.9991 25.4063 92.7751 25.5556C92.5511 25.6943 92.2951 25.8063 92.0071 25.8916C91.7298 25.977 91.4098 26.0196 91.0471 26.0196ZM91.2551 24.8836C91.6284 24.8836 91.9644 24.809 92.2631 24.6596C92.5724 24.4996 92.8338 24.2863 93.0471 24.0196C93.2604 23.7423 93.4204 23.4383 93.5271 23.1076C93.6444 22.777 93.7031 22.4303 93.7031 22.0676V22.0196H91.6871C91.1644 22.0196 90.7431 22.0836 90.4231 22.2116C90.1031 22.329 89.8738 22.4996 89.7351 22.7236C89.5964 22.937 89.5271 23.1823 89.5271 23.4596C89.5271 23.7476 89.5911 23.9983 89.7191 24.2116C89.8578 24.425 90.0551 24.5903 90.3111 24.7076C90.5778 24.825 90.8924 24.8836 91.2551 24.8836ZM97.0878 25.8276V14.3076H98.4318V25.8276H97.0878ZM103.652 26.0196C102.98 26.0196 102.393 25.9076 101.892 25.6836C101.401 25.4596 101.007 25.1503 100.708 24.7556C100.42 24.3503 100.244 23.8756 100.18 23.3316H101.556C101.609 23.609 101.721 23.865 101.892 24.0996C102.063 24.3343 102.292 24.5263 102.58 24.6756C102.879 24.8143 103.241 24.8836 103.668 24.8836C104.041 24.8836 104.351 24.8303 104.596 24.7236C104.841 24.6063 105.023 24.4516 105.14 24.2596C105.268 24.0676 105.332 23.8596 105.332 23.6356C105.332 23.305 105.252 23.0543 105.092 22.8836C104.943 22.713 104.719 22.5796 104.42 22.4836C104.121 22.377 103.759 22.2863 103.332 22.2116C102.98 22.1476 102.633 22.0623 102.292 21.9556C101.951 21.849 101.647 21.7103 101.38 21.5396C101.113 21.3583 100.9 21.1396 100.74 20.8836C100.591 20.6276 100.516 20.313 100.516 19.9396C100.516 19.481 100.633 19.0756 100.868 18.7236C101.103 18.361 101.439 18.0783 101.876 17.8756C102.324 17.673 102.841 17.5716 103.428 17.5716C104.292 17.5716 104.991 17.7796 105.524 18.1956C106.057 18.6116 106.372 19.2143 106.468 20.0036H105.14C105.087 19.5983 104.911 19.2836 104.612 19.0596C104.324 18.825 103.924 18.7076 103.412 18.7076C102.911 18.7076 102.527 18.809 102.26 19.0116C102.004 19.2143 101.876 19.481 101.876 19.8116C101.876 20.025 101.945 20.217 102.084 20.3876C102.233 20.5476 102.447 20.6863 102.724 20.8036C103.012 20.921 103.364 21.017 103.78 21.0916C104.313 21.1876 104.799 21.3156 105.236 21.4756C105.673 21.6356 106.025 21.8756 106.292 22.1956C106.569 22.505 106.708 22.9476 106.708 23.5236C106.708 24.025 106.58 24.4623 106.324 24.8356C106.079 25.209 105.727 25.5023 105.268 25.7156C104.809 25.9183 104.271 26.0196 103.652 26.0196Z" fill="white"/>
<line x1="11" y1="1.32764" x2="113" y2="1.32764" stroke="url(#paint0_linear_7_693)"/>
</g>
<rect x="0.5" y="1.32764" width="123" height="39" rx="19.5" stroke="white" stroke-opacity="0.12"/>
<defs>
<linearGradient id="paint0_linear_7_693" x1="11" y1="2.32764" x2="113" y2="2.32764" gradientUnits="userSpaceOnUse">
<stop offset="0.15" stop-color="#00CCFF" stop-opacity="0"/>
<stop offset="0.495" stop-color="#00CCFF"/>
<stop offset="0.845" stop-color="#00CCFF" stop-opacity="0"/>
</linearGradient>
<clipPath id="clip0_7_693">
<rect y="0.827637" width="124" height="40" rx="20" fill="white"/>
</clipPath>
</defs>
</svg>
