<svg width="142" height="40" viewBox="0 0 142 40" fill="none" xmlns="http://www.w3.org/2000/svg">
<rect width="142" height="40" rx="20" fill="#12141A"/>
<rect x="0.5" y="0.5" width="141" height="39" rx="19.5" stroke="white" stroke-opacity="0.12"/>
<path d="M19.8985 25L16.8265 13.8H18.2665L20.6825 23.4L23.4185 13.8H24.9225L27.5945 23.432L30.0425 13.8H31.4825L28.3465 25H26.8105L24.1385 15.736L21.4025 25H19.8985ZM32.9604 25V13.48H34.3044V18.296C34.5711 17.816 34.9444 17.4373 35.4244 17.16C35.9151 16.8827 36.4484 16.744 37.0244 16.744C37.6431 16.744 38.1818 16.872 38.6404 17.128C39.0991 17.3733 39.4511 17.752 39.6964 18.264C39.9418 18.776 40.0644 19.4213 40.0644 20.2V25H38.7364V20.344C38.7364 19.5333 38.5658 18.9253 38.2244 18.52C37.8831 18.104 37.3871 17.896 36.7364 17.896C36.2778 17.896 35.8618 18.008 35.4884 18.232C35.1258 18.456 34.8378 18.776 34.6244 19.192C34.4111 19.608 34.3044 20.12 34.3044 20.728V25H32.9604ZM44.7492 25.192C44.0985 25.192 43.5545 25.08 43.1172 24.856C42.6798 24.6213 42.3545 24.3173 42.1412 23.944C41.9278 23.56 41.8212 23.144 41.8212 22.696C41.8212 22.152 41.9598 21.6933 42.2372 21.32C42.5252 20.936 42.9252 20.648 43.4372 20.456C43.9598 20.2533 44.5732 20.152 45.2772 20.152H47.4052C47.4052 19.6507 47.3252 19.2347 47.1652 18.904C47.0158 18.5627 46.7918 18.3067 46.4932 18.136C46.2052 17.9653 45.8425 17.88 45.4052 17.88C44.8932 17.88 44.4505 18.008 44.0772 18.264C43.7038 18.52 43.4745 18.8987 43.3892 19.4H42.0132C42.0772 18.824 42.2692 18.344 42.5892 17.96C42.9198 17.5653 43.3358 17.2667 43.8372 17.064C44.3385 16.8507 44.8612 16.744 45.4052 16.744C46.1518 16.744 46.7705 16.8827 47.2612 17.16C47.7625 17.4267 48.1358 17.8053 48.3812 18.296C48.6265 18.776 48.7492 19.3467 48.7492 20.008V25H47.5492L47.4692 23.576C47.3625 23.8 47.2238 24.0133 47.0532 24.216C46.8932 24.408 46.7012 24.5787 46.4772 24.728C46.2532 24.8667 45.9972 24.9787 45.7092 25.064C45.4318 25.1493 45.1118 25.192 44.7492 25.192ZM44.9572 24.056C45.3305 24.056 45.6665 23.9813 45.9652 23.832C46.2745 23.672 46.5358 23.4587 46.7492 23.192C46.9625 22.9147 47.1225 22.6107 47.2292 22.28C47.3465 21.9493 47.4052 21.6027 47.4052 21.24V21.192H45.3892C44.8665 21.192 44.4452 21.256 44.1252 21.384C43.8052 21.5013 43.5758 21.672 43.4372 21.896C43.2985 22.1093 43.2292 22.3547 43.2292 22.632C43.2292 22.92 43.2932 23.1707 43.4212 23.384C43.5598 23.5973 43.7572 23.7627 44.0132 23.88C44.2798 23.9973 44.5945 24.056 44.9572 24.056ZM53.7391 25C53.2591 25 52.8431 24.9253 52.4911 24.776C52.1391 24.6267 51.8671 24.376 51.6751 24.024C51.4938 23.6613 51.4031 23.176 51.4031 22.568V18.072H49.9951V16.936H51.4031L51.5791 14.984H52.7471V16.936H55.0831V18.072H52.7471V22.568C52.7471 23.0693 52.8485 23.4107 53.0511 23.592C53.2538 23.7627 53.6111 23.848 54.1231 23.848H54.9871V25H53.7391ZM63.394 25L60.322 13.8H61.762L64.178 23.4L66.914 13.8H68.418L71.09 23.432L73.538 13.8H74.978L71.842 25H70.306L67.634 15.736L64.898 25H63.394ZM79.1794 25.192C78.4221 25.192 77.7501 25.016 77.1634 24.664C76.5874 24.312 76.1341 23.8213 75.8034 23.192C75.4728 22.552 75.3074 21.8107 75.3074 20.968C75.3074 20.1147 75.4674 19.3733 75.7874 18.744C76.1181 18.1147 76.5768 17.624 77.1634 17.272C77.7608 16.92 78.4434 16.744 79.2114 16.744C80.0008 16.744 80.6674 16.92 81.2114 17.272C81.7661 17.624 82.1874 18.088 82.4754 18.664C82.7741 19.2293 82.9234 19.8533 82.9234 20.536C82.9234 20.6427 82.9234 20.7547 82.9234 20.872C82.9234 20.9893 82.9181 21.1227 82.9074 21.272H76.3154V20.232H81.6114C81.5794 19.496 81.3341 18.92 80.8754 18.504C80.4274 18.088 79.8621 17.88 79.1794 17.88C78.7208 17.88 78.2941 17.9867 77.8994 18.2C77.5154 18.4027 77.2061 18.7067 76.9714 19.112C76.7368 19.5067 76.6194 20.0027 76.6194 20.6V21.048C76.6194 21.7093 76.7368 22.264 76.9714 22.712C77.2168 23.16 77.5314 23.496 77.9154 23.72C78.3101 23.944 78.7314 24.056 79.1794 24.056C79.7448 24.056 80.2088 23.9333 80.5714 23.688C80.9448 23.432 81.2114 23.0907 81.3714 22.664H82.6994C82.5714 23.144 82.3474 23.576 82.0274 23.96C81.7074 24.344 81.3074 24.648 80.8274 24.872C80.3581 25.0853 79.8088 25.192 79.1794 25.192ZM93.9824 25.192C92.9051 25.192 91.9557 24.952 91.1344 24.472C90.3237 23.9813 89.6891 23.304 89.2304 22.44C88.7824 21.5653 88.5584 20.552 88.5584 19.4C88.5584 18.2587 88.7824 17.256 89.2304 16.392C89.6891 15.5173 90.3237 14.8347 91.1344 14.344C91.9557 13.8533 92.9051 13.608 93.9824 13.608C95.0811 13.608 96.0357 13.8533 96.8464 14.344C97.6571 14.8347 98.2864 15.5173 98.7344 16.392C99.1931 17.256 99.4224 18.2587 99.4224 19.4C99.4224 20.552 99.1931 21.5653 98.7344 22.44C98.2864 23.304 97.6571 23.9813 96.8464 24.472C96.0357 24.952 95.0811 25.192 93.9824 25.192ZM93.9824 24.008C94.7931 24.008 95.5024 23.8267 96.1104 23.464C96.7291 23.0907 97.2037 22.5627 97.5344 21.88C97.8757 21.1867 98.0464 20.36 98.0464 19.4C98.0464 18.44 97.8757 17.6187 97.5344 16.936C97.2037 16.2427 96.7291 15.7147 96.1104 15.352C95.5024 14.9893 94.7931 14.808 93.9824 14.808C93.1824 14.808 92.4731 14.9893 91.8544 15.352C91.2464 15.7147 90.7717 16.2427 90.4304 16.936C90.0997 17.6187 89.9344 18.44 89.9344 19.4C89.9344 20.36 90.0997 21.1867 90.4304 21.88C90.7717 22.5627 91.2464 23.0907 91.8544 23.464C92.4731 23.8267 93.1824 24.008 93.9824 24.008ZM101.711 25V15.688C101.711 15.176 101.796 14.76 101.967 14.44C102.137 14.1093 102.388 13.8693 102.719 13.72C103.06 13.56 103.476 13.48 103.967 13.48H104.879V14.632H104.175C103.78 14.632 103.492 14.712 103.311 14.872C103.14 15.032 103.055 15.3147 103.055 15.72V25H101.711ZM100.479 18.072V16.936H105.087V18.072H100.479ZM107.11 25V15.688C107.11 15.176 107.195 14.76 107.366 14.44C107.536 14.1093 107.787 13.8693 108.118 13.72C108.459 13.56 108.875 13.48 109.366 13.48H110.278V14.632H109.574C109.179 14.632 108.891 14.712 108.71 14.872C108.539 15.032 108.454 15.3147 108.454 15.72V25H107.11ZM105.878 18.072V16.936H110.486V18.072H105.878ZM115.284 25.192C114.527 25.192 113.855 25.016 113.268 24.664C112.692 24.312 112.239 23.8213 111.908 23.192C111.578 22.552 111.412 21.8107 111.412 20.968C111.412 20.1147 111.572 19.3733 111.892 18.744C112.223 18.1147 112.682 17.624 113.268 17.272C113.866 16.92 114.548 16.744 115.316 16.744C116.106 16.744 116.772 16.92 117.316 17.272C117.871 17.624 118.292 18.088 118.58 18.664C118.879 19.2293 119.028 19.8533 119.028 20.536C119.028 20.6427 119.028 20.7547 119.028 20.872C119.028 20.9893 119.023 21.1227 119.012 21.272H112.42V20.232H117.716C117.684 19.496 117.439 18.92 116.98 18.504C116.532 18.088 115.967 17.88 115.284 17.88C114.826 17.88 114.399 17.9867 114.004 18.2C113.62 18.4027 113.311 18.7067 113.076 19.112C112.842 19.5067 112.724 20.0027 112.724 20.6V21.048C112.724 21.7093 112.842 22.264 113.076 22.712C113.322 23.16 113.636 23.496 114.02 23.72C114.415 23.944 114.836 24.056 115.284 24.056C115.85 24.056 116.314 23.9333 116.676 23.688C117.05 23.432 117.316 23.0907 117.476 22.664H118.804C118.676 23.144 118.452 23.576 118.132 23.96C117.812 24.344 117.412 24.648 116.932 24.872C116.463 25.0853 115.914 25.192 115.284 25.192ZM120.804 25V16.936H122.02L122.116 18.472C122.297 18.1093 122.526 17.8 122.804 17.544C123.092 17.288 123.433 17.0907 123.828 16.952C124.233 16.8133 124.692 16.744 125.204 16.744V18.152H124.708C124.366 18.152 124.041 18.2 123.732 18.296C123.422 18.3813 123.145 18.5253 122.9 18.728C122.665 18.9307 122.478 19.208 122.34 19.56C122.212 19.9013 122.148 20.328 122.148 20.84V25H120.804Z" fill="white"/>
<line y1="0.5" x2="142" y2="0.5" stroke="url(#paint0_linear_1_161)"/>
<defs>
<linearGradient id="paint0_linear_1_161" x1="0" y1="1.5" x2="142" y2="1.5" gradientUnits="userSpaceOnUse">
<stop offset="0.15" stop-color="#007BFF" stop-opacity="0"/>
<stop offset="0.495" stop-color="#007BFF"/>
<stop offset="0.845" stop-color="#007BFF" stop-opacity="0"/>
</linearGradient>
</defs>
</svg>
