<svg width="45" height="50" viewBox="0 0 45 50" fill="none" xmlns="http://www.w3.org/2000/svg">
<path fill-rule="evenodd" clip-rule="evenodd" d="M20.2837 25.8357C19.4463 25.5566 18.702 26.1149 18.702 26.9523C18.702 27.7897 19.4463 28.7201 20.2837 28.9992C21.1211 29.2784 21.8655 28.7201 21.8655 27.8827C21.8655 26.9523 21.2142 26.1149 20.2837 25.8357ZM22.2376 23.6957C22.889 23.0444 22.7959 22.207 22.0516 21.7418C21.3072 21.2765 20.1907 21.4626 19.5394 22.1139C18.888 22.7653 18.9811 23.6027 19.7254 24.0679C20.4698 24.5331 21.5863 24.347 22.2376 23.6957ZM25.7733 21.4626C26.3316 20.9044 26.2386 20.067 25.5872 19.6948C24.9359 19.3226 23.8194 19.4156 23.2611 20.067C22.7029 20.6252 22.7959 21.4626 23.4472 21.8348C24.1916 22.207 25.2151 22.1139 25.7733 21.4626ZM29.4951 19.2296C30.0534 18.6713 29.9603 18.02 29.309 17.6478C28.6577 17.2756 27.7273 17.4617 27.262 17.9269C26.7038 18.4852 26.7968 19.1365 27.4481 19.5087C28.0064 19.8809 28.9368 19.7878 29.4951 19.2296ZM33.2169 16.9034C33.6821 16.4382 33.5891 15.7869 33.0308 15.5078C32.4725 15.2286 31.6351 15.3217 31.1699 15.7869C30.7047 16.2521 30.7977 16.9034 31.356 17.1826C31.9143 17.5548 32.7517 17.3687 33.2169 16.9034ZM37.1248 14.5773C37.4969 14.2052 37.4969 13.6469 37.0317 13.2747C36.5665 12.9956 35.8221 13.0886 35.3569 13.5538C34.9847 13.926 34.9847 14.4843 35.45 14.8565C36.0082 15.0426 36.6595 14.9495 37.1248 14.5773ZM41.1257 12.1582C41.4979 11.786 41.4048 11.3208 41.0326 11.0416C40.5674 10.7625 40.0091 10.8556 39.637 11.2277C39.2648 11.5999 39.3578 12.0651 39.73 12.3443C40.1022 12.5304 40.7535 12.4373 41.1257 12.1582ZM18.795 21.7418C19.4463 21.0905 19.3533 20.2531 18.6089 19.7878C17.8646 19.3226 16.748 19.5087 16.0967 20.16C15.4454 20.8113 15.5384 21.6487 16.2828 22.1139C17.0272 22.5792 18.1437 22.3931 18.795 21.7418ZM22.3307 19.5087C22.889 18.9504 22.7959 18.113 22.1446 17.7408C21.4933 17.3687 20.3768 17.4617 19.8185 18.113C19.2602 18.6713 19.3533 19.5087 20.0046 19.8809C20.7489 20.2531 21.7724 20.067 22.3307 19.5087ZM25.9594 17.2756C26.5177 16.7174 26.4246 16.066 25.7733 15.6939C25.122 15.3217 24.1916 15.5078 23.7264 15.973C23.1681 16.5313 23.2611 17.1826 23.9124 17.5548C24.5638 17.9269 25.4942 17.7409 25.9594 17.2756ZM29.7743 14.9495C30.2395 14.4843 30.1464 13.833 29.5882 13.5538C29.0299 13.2747 28.1925 13.3678 27.7273 13.833C27.262 14.2982 27.3551 14.9495 27.9134 15.2286C28.4716 15.5078 29.309 15.4147 29.7743 14.9495ZM33.5891 12.5304C33.9613 12.1582 33.9613 11.5999 33.496 11.2277C33.0308 10.9486 32.2865 11.0416 31.8212 11.5069C31.4491 11.879 31.4491 12.4373 31.9143 12.8095C32.4725 12.9956 33.2169 12.9025 33.5891 12.5304ZM37.4969 10.1112C37.8691 9.73902 37.7761 9.2738 37.4039 8.99467C36.9387 8.71553 36.3804 8.80858 36.0082 9.18075C35.6361 9.55293 35.7291 10.0182 36.1013 10.2973C36.5665 10.4834 37.2178 10.3903 37.4969 10.1112ZM15.2593 19.6948C15.9106 19.0435 15.8176 18.2061 15.0732 17.7408C14.3289 17.2756 13.2123 17.4617 12.561 18.113C11.9097 18.7643 12.0027 19.6017 12.7471 20.067C13.4915 20.5322 14.701 20.3461 15.2593 19.6948ZM18.795 17.4617C19.3533 16.9035 19.2602 16.066 18.6089 15.6939C17.9576 15.3217 16.8411 15.4147 16.2828 16.066C15.7245 16.6243 15.8176 17.4617 16.4689 17.8339C17.2132 18.2061 18.2367 18.02 18.795 17.4617ZM22.4237 15.2286C22.982 14.6704 22.889 14.0191 22.2376 13.6469C21.5863 13.2747 20.6559 13.4608 20.1907 13.926C19.6324 14.4843 19.7254 15.1356 20.3768 15.5078C21.0281 15.88 21.9585 15.6939 22.4237 15.2286ZM26.1455 12.8095C26.6107 12.3443 26.5177 11.693 25.9594 11.4138C25.4012 11.1347 24.5638 11.2277 24.0985 11.693C23.6333 12.1582 23.7264 12.8095 24.2846 13.0886C24.8429 13.4608 25.6803 13.2747 26.1455 12.8095ZM29.9603 10.4834C30.3325 10.1112 30.3325 9.55293 29.8673 9.18075C29.4021 8.90162 28.6577 8.99467 28.1925 9.45989C27.8203 9.83207 27.8203 10.3903 28.2855 10.7625C28.8438 10.9486 29.5882 10.8556 29.9603 10.4834ZM33.8682 7.97118C34.2404 7.599 34.1473 7.13378 33.7752 6.85464C33.3099 6.57551 32.7517 6.66855 32.3795 7.04073C32.0073 7.41291 32.1004 7.87813 32.4725 8.15727C32.8447 8.4364 33.5891 8.34336 33.8682 7.97118ZM11.7236 17.6478C12.3749 16.9965 12.2819 16.1591 11.5375 15.6939C10.7932 15.2286 9.67663 15.4147 9.02532 16.066C8.37401 16.7174 8.46706 17.5548 9.21141 18.02C9.95577 18.3922 11.0723 18.2991 11.7236 17.6478ZM15.1663 15.4147C15.7245 14.8565 15.6315 14.0191 14.9802 13.6469C14.3289 13.2747 13.2123 13.3678 12.6541 14.0191C12.0958 14.5773 12.1888 15.4147 12.8401 15.7869C13.5845 16.1591 14.608 15.973 15.1663 15.4147ZM18.795 13.0886C19.3533 12.5304 19.2602 11.879 18.6089 11.5069C17.9576 11.1347 17.0271 11.3208 16.5619 11.786C16.0037 12.3443 16.0967 12.9956 16.748 13.3678C17.3063 13.7399 18.2367 13.6469 18.795 13.0886ZM22.5168 10.7625C22.982 10.2973 22.889 9.64598 22.3307 9.36684C21.7724 9.08771 20.935 9.18075 20.4698 9.64598C20.0046 10.1112 20.0976 10.7625 20.6559 11.0416C21.2142 11.3208 22.0516 11.2277 22.5168 10.7625ZM26.2386 8.34335C26.6107 7.97117 26.6107 7.41291 26.1455 7.04073C25.6803 6.7616 24.9359 6.85464 24.4707 7.31986C24.0985 7.69204 24.0985 8.25031 24.5638 8.62249C25.122 8.80858 25.8664 8.71553 26.2386 8.34335ZM30.1464 5.83115C30.5186 5.45898 30.4256 4.99375 30.0534 4.71462C29.5882 4.43549 29.0299 4.52853 28.6577 4.90071C28.2855 5.27289 28.3786 5.73811 28.7508 6.01724C29.1229 6.29637 29.8673 6.20333 30.1464 5.83115ZM8.00183 15.5078C8.65314 14.8565 8.5601 14.0191 7.81574 13.5538C7.07139 13.0886 5.95485 13.2747 5.30354 13.926C4.65223 14.5773 4.74527 15.4147 5.48963 15.88C6.23399 16.3452 7.35052 16.1591 8.00183 15.5078ZM11.4445 13.2747C12.0027 12.7164 11.9097 11.879 11.2584 11.5069C10.6071 11.1347 9.49054 11.2277 8.93228 11.879C8.37401 12.4373 8.46705 13.2747 9.11836 13.6469C9.86272 13.926 10.8862 13.833 11.4445 13.2747ZM15.0732 10.9486C15.6315 10.3903 15.5384 9.73902 14.8871 9.36684C14.2358 8.99467 13.3054 9.18075 12.8401 9.64598C12.2819 10.2042 12.3749 10.8556 13.0262 11.2277C13.5845 11.5999 14.5149 11.4138 15.0732 10.9486ZM18.702 8.52944C19.1672 8.06422 19.0741 7.41291 18.5159 7.13377C17.9576 6.85464 17.1202 6.94768 16.655 7.41291C16.1898 7.87813 16.2828 8.52944 16.8411 8.80858C17.3993 9.18075 18.2367 8.99467 18.702 8.52944ZM22.5168 6.11029C22.889 5.73811 22.889 5.17984 22.4237 4.80766C21.9585 4.52853 21.2142 4.62157 20.7489 5.08679C20.3768 5.45897 20.3768 6.01724 20.842 6.38942C21.3072 6.66855 22.0516 6.48246 22.5168 6.11029ZM26.3316 3.59808C26.7038 3.22591 26.6107 2.76068 26.2386 2.48155C25.7733 2.20242 25.2151 2.29546 24.8429 2.66764C24.4707 3.03982 24.5638 3.50504 24.9359 3.78417C25.4012 4.06331 25.9594 3.97026 26.3316 3.59808ZM4.18701 13.2747C4.83832 12.6234 4.74527 11.786 4.00091 11.3208C3.25656 10.8556 2.14003 11.0416 1.48871 11.693C0.837402 12.3443 0.930443 13.1817 1.6748 13.6469C2.41916 14.1121 3.53569 13.926 4.18701 13.2747ZM7.62965 11.0416C8.18792 10.4834 8.09488 9.64598 7.44357 9.2738C6.79225 8.90162 5.67572 8.99467 5.11745 9.64598C4.55919 10.2042 4.65223 11.0416 5.30354 11.4138C6.04789 11.786 7.07138 11.5999 7.62965 11.0416ZM11.1653 8.71553C11.7236 8.15727 11.6306 7.50595 10.9793 7.13377C10.3279 6.7616 9.3975 6.94768 8.93228 7.41291C8.37401 7.97117 8.46705 8.62249 9.11836 8.99467C9.76967 9.36684 10.7001 9.18075 11.1653 8.71553ZM14.7941 6.29638C15.2593 5.83115 15.1663 5.17984 14.608 4.90071C14.0497 4.62157 13.2123 4.71462 12.7471 5.17984C12.2819 5.64506 12.3749 6.29638 12.9332 6.57551C13.4915 6.85464 14.3289 6.7616 14.7941 6.29638ZM18.6089 3.87722C18.9811 3.50504 18.9811 2.94677 18.5159 2.5746C18.0506 2.29546 17.3063 2.38851 16.8411 2.85373C16.4689 3.22591 16.4689 3.78417 16.9341 4.15635C17.3993 4.34244 18.1437 4.24939 18.6089 3.87722ZM22.4237 1.36501C22.7959 0.992837 22.7029 0.527617 22.3307 0.248483C21.8655 -0.0306503 21.3072 0.0623914 20.935 0.434569C20.5628 0.806747 20.6559 1.27197 21.0281 1.5511C21.4002 1.73719 22.0516 1.64415 22.4237 1.36501ZM23.1681 26.487C23.4472 27.3244 24.1916 27.6966 24.9359 27.3244C25.6803 26.8592 26.1455 25.8357 25.8664 24.9053C25.5872 24.0679 24.8429 23.6957 24.0985 24.0679C23.3542 24.5331 22.889 25.5566 23.1681 26.487ZM23.2611 30.674C23.4472 31.5114 24.1916 31.7906 24.9359 31.4184C25.5872 31.0462 26.0525 30.0227 25.7733 29.2784C25.5872 28.441 24.8429 28.1618 24.0985 28.534C23.4472 28.9062 23.075 29.8366 23.2611 30.674ZM23.3542 34.9541C23.5403 35.6984 24.1916 35.9776 24.8429 35.6054C25.4942 35.2332 25.7733 34.3958 25.5872 33.6515C25.4012 32.9071 24.7498 32.628 24.0985 33.0001C23.5403 33.3723 23.1681 34.2097 23.3542 34.9541ZM23.4472 39.4202C23.6333 40.0715 24.1916 40.3507 24.7498 39.9785C25.3081 39.6994 25.5872 38.8619 25.4012 38.2106C25.2151 37.5593 24.6568 37.2802 24.0985 37.6524C23.6333 37.9315 23.3542 38.7689 23.4472 39.4202ZM23.6333 43.8864C23.8194 44.4446 24.2846 44.7238 24.7498 44.3516C25.2151 44.0724 25.4942 43.4211 25.4012 42.8629C25.2151 42.3046 24.7498 42.0255 24.2846 42.3976C23.7264 42.6768 23.4472 43.3281 23.6333 43.8864ZM23.7264 48.6316C23.8194 49.0969 24.2846 49.2829 24.7498 49.0969C25.2151 48.8177 25.4012 48.2594 25.3081 47.7942C25.2151 47.329 24.7498 47.1429 24.2846 47.329C23.8194 47.5151 23.6333 48.0734 23.7264 48.6316ZM26.5177 24.4401C26.7968 25.2775 27.5412 25.6496 28.2855 25.2775C29.0299 24.8122 29.4951 23.7887 29.216 22.8583C28.9369 22.0209 28.1925 21.6487 27.4481 22.0209C26.7038 22.5792 26.3316 23.6027 26.5177 24.4401ZM26.7038 28.6271C26.8899 29.4645 27.6342 29.7436 28.3786 29.3714C29.0299 28.9992 29.4951 27.9757 29.216 27.2314C29.0299 26.394 28.2855 26.1149 27.5412 26.487C26.8899 26.8592 26.5177 27.8827 26.7038 28.6271ZM26.7968 32.9071C26.9829 33.6515 27.6342 33.9306 28.2855 33.5584C28.9369 33.1862 29.216 32.3488 29.0299 31.6045C28.8438 30.8601 28.1925 30.581 27.5412 30.9532C26.9829 31.3253 26.6107 32.2558 26.7968 32.9071ZM26.9829 37.3732C27.169 38.0246 27.7273 38.3037 28.2855 37.9315C28.8438 37.6524 29.1229 36.815 28.9369 36.1637C28.7508 35.5124 28.1925 35.2332 27.6342 35.6054C27.076 35.9776 26.7968 36.7219 26.9829 37.3732ZM27.169 41.9324C27.3551 42.4907 27.8203 42.7698 28.2855 42.3976C28.7508 42.1185 29.0299 41.4672 28.9369 40.9089C28.7508 40.3507 28.2855 40.0715 27.8203 40.4437C27.2621 40.6298 26.9829 41.2811 27.169 41.9324ZM27.262 46.5846C27.3551 47.0499 27.8203 47.236 28.2855 47.0499C28.7508 46.7707 28.9369 46.2125 28.8438 45.7472C28.7508 45.282 28.2855 45.0959 27.8203 45.282C27.3551 45.4681 27.169 46.0264 27.262 46.5846ZM30.0534 22.4861C30.3325 23.3235 31.0769 23.6957 31.8212 23.3235C32.5656 22.8583 33.0308 21.8348 32.7517 20.9044C32.4725 20.067 31.7282 19.6948 30.9838 20.067C30.2395 20.5322 29.7743 21.5557 30.0534 22.4861ZM30.2395 26.5801C30.4256 27.4175 31.1699 27.6966 31.9143 27.3244C32.5656 26.9523 33.0308 25.9288 32.7517 25.1844C32.5656 24.347 31.8212 24.0679 31.0769 24.4401C30.4256 24.8122 30.0534 25.8357 30.2395 26.5801ZM30.4256 30.8601C30.6117 31.6045 31.263 31.8836 31.9143 31.5114C32.5656 31.1393 32.8447 30.3019 32.6586 29.5575C32.4725 28.8131 31.8212 28.534 31.1699 28.9062C30.5186 29.2784 30.2395 30.2088 30.4256 30.8601ZM30.5186 35.3263C30.7047 35.9776 31.263 36.2567 31.8212 35.8845C32.3795 35.6054 32.6586 34.768 32.4725 34.1167C32.2865 33.4654 31.7282 33.1862 31.1699 33.5584C30.7047 33.8375 30.4256 34.6749 30.5186 35.3263ZM30.7047 39.7924C30.8908 40.3507 31.356 40.6298 31.8212 40.2576C32.2865 39.9785 32.5656 39.3272 32.4725 38.7689C32.2865 38.2106 31.8212 37.9315 31.356 38.3037C30.8908 38.5828 30.6117 39.2341 30.7047 39.7924ZM30.8908 44.4446C30.9838 44.9098 31.4491 45.0959 31.9143 44.9098C32.3795 44.6307 32.5656 44.0724 32.4725 43.6072C32.3795 43.142 31.9143 42.9559 31.4491 43.142C30.9838 43.3281 30.7977 43.9794 30.8908 44.4446ZM33.6821 20.3461C33.9613 21.1835 34.7056 21.5557 35.45 21.1835C36.1943 20.7183 36.6595 19.6948 36.3804 18.7643C36.1013 17.9269 35.3569 17.5548 34.6126 17.9269C33.8682 18.3922 33.403 19.5087 33.6821 20.3461ZM33.8682 24.5331C34.0543 25.3705 34.7987 25.6496 35.543 25.2775C36.1943 24.9053 36.6595 23.8818 36.3804 23.1374C36.1943 22.3 35.45 22.0209 34.7056 22.3931C34.0543 22.7652 33.5891 23.6957 33.8682 24.5331ZM34.0543 28.8131C34.2404 29.5575 34.8917 29.8366 35.543 29.4645C36.1943 29.0923 36.4735 28.2549 36.2874 27.5105C36.1013 26.7662 35.45 26.487 34.7987 26.8592C34.2404 27.2314 33.8682 28.0688 34.0543 28.8131ZM34.2404 33.1862C34.4265 33.8376 34.9847 34.1167 35.543 33.7445C36.1013 33.4654 36.3804 32.628 36.1943 31.9767C36.0082 31.3253 35.45 31.0462 34.8917 31.4184C34.3334 31.7906 34.0543 32.5349 34.2404 33.1862ZM34.4265 37.6524C34.6126 38.2106 35.0778 38.4898 35.543 38.1176C36.0082 37.8385 36.2874 37.1872 36.1943 36.6289C36.0082 36.0706 35.543 35.7915 35.0778 36.1637C34.5195 36.4428 34.3334 37.0941 34.4265 37.6524ZM34.6126 42.3046C34.7056 42.7698 35.1708 42.9559 35.6361 42.7698C36.1013 42.4907 36.2874 41.9324 36.1943 41.4672C36.1013 41.002 35.6361 40.8159 35.1708 41.002C34.7056 41.1881 34.5195 41.8394 34.6126 42.3046ZM37.3109 18.2061C37.59 19.0435 38.3343 19.4156 39.0787 19.0435C39.8231 18.5782 40.2883 17.5548 40.0092 16.6243C39.73 15.7869 38.9857 15.4147 38.2413 15.7869C37.4969 16.3452 37.1248 17.3687 37.3109 18.2061ZM37.59 22.3931C37.7761 23.2305 38.5204 23.5096 39.2648 23.1374C39.9161 22.7653 40.3813 21.7418 40.1022 20.9974C39.9161 20.16 39.1717 19.8809 38.4274 20.2531C37.7761 20.6252 37.3109 21.5557 37.59 22.3931ZM37.7761 26.6731C37.9622 27.4175 38.6135 27.6966 39.2648 27.3244C39.9161 26.9523 40.1952 26.1149 40.0092 25.3705C39.8231 24.6261 39.1717 24.347 38.5204 24.7192C37.9622 24.9983 37.59 25.9288 37.7761 26.6731ZM38.0552 30.9532C38.2413 31.6045 38.7996 31.8836 39.3578 31.5114C39.9161 31.2323 40.1952 30.3949 40.0092 29.7436C39.8231 29.0923 39.2648 28.8131 38.7065 29.1853C38.1483 29.5575 37.8691 30.3949 38.0552 30.9532ZM38.2413 35.5124C38.4274 36.0706 38.8926 36.3498 39.3578 35.9776C39.8231 35.6984 40.1022 35.0471 40.0092 34.4889C39.8231 33.9306 39.3578 33.6515 38.8926 34.0236C38.3343 34.2097 38.0552 34.861 38.2413 35.5124ZM38.5204 40.0715C38.6135 40.5368 39.0787 40.7228 39.5439 40.5368C40.0092 40.2576 40.1952 39.6994 40.1022 39.2341C40.0091 38.7689 39.5439 38.5828 39.0787 38.7689C38.6135 38.955 38.3343 39.6063 38.5204 40.0715ZM41.1257 16.066C41.4048 16.9035 42.1492 17.2756 42.8935 16.9034C43.6379 16.4382 44.1031 15.4147 43.824 14.4843C43.5448 13.6469 42.8005 13.2747 42.0561 13.6469C41.3118 14.1121 40.9396 15.1356 41.1257 16.066ZM41.4048 20.16C41.5909 20.9974 42.3353 21.2765 43.0796 20.9044C43.7309 20.5322 44.1962 19.5087 43.917 18.7643C43.7309 17.9269 42.9866 17.6478 42.2422 18.02C41.5909 18.3922 41.2187 19.4157 41.4048 20.16ZM41.684 24.4401C41.87 25.1844 42.5214 25.4635 43.1727 25.0914C43.824 24.7192 44.1031 23.8818 43.917 23.1374C43.7309 22.3931 43.0796 22.1139 42.4283 22.4861C41.777 22.8583 41.4048 23.6957 41.684 24.4401ZM41.87 28.7201C42.0561 29.3714 42.6144 29.6505 43.1727 29.2784C43.7309 28.9992 44.0101 28.1618 43.824 27.5105C43.6379 26.8592 43.0796 26.5801 42.5213 26.9523C42.0561 27.3244 41.684 28.0688 41.87 28.7201ZM42.1492 33.1862C42.3353 33.7445 42.8005 34.0236 43.2657 33.6515C43.7309 33.3723 44.0101 32.721 43.917 32.1627C43.7309 31.6045 43.2657 31.3253 42.8005 31.6975C42.2422 31.9767 41.9631 32.628 42.1492 33.1862ZM16.5619 23.8818C15.7245 23.6957 15.0732 24.1609 15.0732 24.9053C15.0732 25.7427 15.7245 26.487 16.5619 26.7662C17.3993 26.9523 18.0506 26.487 18.0506 25.7427C18.0506 24.9053 17.3993 24.0679 16.5619 23.8818ZM12.8401 21.8348C12.0958 21.6487 11.5375 22.1139 11.5375 22.7653C11.5375 23.5096 12.0958 24.254 12.8401 24.4401C13.5845 24.6261 14.1428 24.1609 14.1428 23.5096C14.1428 22.7653 13.4915 22.0209 12.8401 21.8348ZM8.93228 19.6948C8.28096 19.5087 7.81574 19.8809 7.81574 20.5322C7.81574 21.1835 8.37401 21.8348 8.93228 22.0209C9.58359 22.207 10.0488 21.8348 10.0488 21.1835C10.0488 20.5322 9.58359 19.8809 8.93228 19.6948ZM4.93136 17.5548C4.37309 17.3687 3.90787 17.7409 3.90787 18.2991C3.90787 18.8574 4.37309 19.4156 4.93136 19.6017C5.48962 19.7878 5.95485 19.4157 5.95485 18.8574C5.95485 18.2991 5.48962 17.7409 4.93136 17.5548ZM0.837406 15.3217C0.372181 15.2286 3.8147e-06 15.5078 3.8147e-06 15.973C3.8147e-06 16.4382 0.372181 16.9965 0.837406 17.0895C1.30263 17.1826 1.6748 16.9034 1.6748 16.4382C1.6748 15.973 1.30263 15.4147 0.837406 15.3217ZM20.2837 29.8366C19.4463 29.5575 18.702 30.1158 18.702 30.9532C18.702 31.7906 19.4463 32.721 20.2837 33.0001C21.1211 33.2793 21.8655 32.721 21.8655 31.8836C21.8655 30.9532 21.2142 30.0227 20.2837 29.8366ZM16.5619 27.8827C15.7245 27.6966 15.0732 28.1618 15.0732 28.9062C15.0732 29.7436 15.7245 30.4879 16.5619 30.7671C17.3993 30.9532 18.0506 30.4879 18.0506 29.7436C18.0506 28.9062 17.3993 28.0688 16.5619 27.8827ZM12.8401 25.8357C12.0958 25.6496 11.5375 26.1149 11.5375 26.7662C11.5375 27.5105 12.0958 28.2549 12.8401 28.441C13.5845 28.6271 14.1428 28.1618 14.1428 27.5105C14.1428 26.7662 13.4915 26.0218 12.8401 25.8357ZM8.93228 23.7887C8.28096 23.6026 7.81574 23.9748 7.81574 24.6261C7.81574 25.2775 8.37401 25.9288 8.93228 26.1149C9.58359 26.3009 10.0488 25.9288 10.0488 25.2775C10.0488 24.5331 9.58359 23.8818 8.93228 23.7887ZM4.93136 21.6487C4.37309 21.4626 3.90787 21.8348 3.90787 22.3931C3.90787 22.9513 4.37309 23.5096 4.93136 23.6957C5.48962 23.8818 5.95485 23.5096 5.95485 22.9513C5.95485 22.3 5.48962 21.7418 4.93136 21.6487ZM0.837406 19.4157C0.372181 19.3226 3.8147e-06 19.6017 3.8147e-06 20.067C3.8147e-06 20.5322 0.372181 21.0905 0.837406 21.1835C1.30263 21.2765 1.6748 20.9974 1.6748 20.5322C1.6748 20.067 1.30263 19.5087 0.837406 19.4157ZM20.2837 33.8376C19.4463 33.5584 18.702 34.1167 18.702 34.9541C18.702 35.7915 19.4463 36.7219 20.2837 37.0011C21.1211 37.2802 21.8655 36.7219 21.8655 35.8845C21.8655 34.9541 21.2142 34.1167 20.2837 33.8376ZM16.5619 31.8836C15.7245 31.6975 15.0732 32.1627 15.0732 32.9071C15.0732 33.7445 15.7245 34.4889 16.5619 34.768C17.3993 34.9541 18.0506 34.4889 18.0506 33.7445C18.0506 32.9071 17.3993 32.1628 16.5619 31.8836ZM12.8401 29.9297C12.0958 29.7436 11.5375 30.2088 11.5375 30.8601C11.5375 31.6045 12.0958 32.3488 12.8401 32.5349C13.5845 32.721 14.1428 32.2558 14.1428 31.6045C14.1428 30.8601 13.4915 30.1158 12.8401 29.9297ZM8.93228 27.8827C8.28096 27.6966 7.81574 28.0688 7.81574 28.7201C7.81574 29.3714 8.37401 30.0227 8.93228 30.2088C9.58359 30.3949 10.0488 30.0227 10.0488 29.3714C10.0488 28.7201 9.58359 28.0688 8.93228 27.8827ZM4.93136 25.7427C4.37309 25.5566 3.90787 25.9288 3.90787 26.487C3.90787 27.0453 4.37309 27.6036 4.93136 27.7897C5.48962 27.9757 5.95485 27.6036 5.95485 27.0453C5.95485 26.487 5.48962 25.9288 4.93136 25.7427ZM0.837406 23.6027C0.372181 23.5096 3.8147e-06 23.7887 3.8147e-06 24.254C3.8147e-06 24.7192 0.372181 25.2775 0.837406 25.3705C1.30263 25.4635 1.6748 25.1844 1.6748 24.7192C1.6748 24.254 1.30263 23.7887 0.837406 23.6027ZM20.2837 38.0246C19.4463 37.7454 18.702 38.3037 18.702 39.1411C18.702 39.9785 19.4463 40.9089 20.2837 41.1881C21.1211 41.4672 21.8655 40.9089 21.8655 40.0715C21.8655 39.1411 21.2142 38.2106 20.2837 38.0246ZM16.5619 36.0706C15.7245 35.8845 15.0732 36.3498 15.0732 37.0941C15.0732 37.9315 15.7245 38.6759 16.5619 38.955C17.3993 39.1411 18.0506 38.6759 18.0506 37.9315C18.0506 37.0941 17.3993 36.3498 16.5619 36.0706ZM12.8401 34.1167C12.0958 33.9306 11.5375 34.3958 11.5375 35.0471C11.5375 35.7915 12.0958 36.5358 12.8401 36.7219C13.5845 36.908 14.1428 36.4428 14.1428 35.7915C14.1428 35.0471 13.4915 34.3028 12.8401 34.1167ZM8.93228 32.1627C8.28096 31.9767 7.81574 32.3488 7.81574 33.0001C7.81574 33.6515 8.37401 34.3028 8.93228 34.4889C9.58359 34.6749 10.0488 34.3028 10.0488 33.6515C10.0488 33.0002 9.58359 32.2558 8.93228 32.1627ZM4.93136 30.0227C4.37309 29.8366 3.90787 30.2088 3.90787 30.7671C3.90787 31.3253 4.37309 31.8836 4.93136 32.0697C5.48962 32.2558 5.95485 31.8836 5.95485 31.3253C5.95485 30.7671 5.48962 30.2088 4.93136 30.0227ZM0.837406 27.8827C0.372181 27.7897 3.8147e-06 28.0688 3.8147e-06 28.534C3.8147e-06 28.9992 0.372181 29.5575 0.837406 29.6505C1.30263 29.7436 1.6748 29.4645 1.6748 28.9992C1.6748 28.534 1.30263 28.0688 0.837406 27.8827ZM20.2837 42.3046C19.4463 42.0255 18.702 42.5837 18.702 43.4211C18.702 44.2585 19.4463 45.189 20.2837 45.4681C21.1211 45.7472 21.8655 45.189 21.8655 44.3516C21.8655 43.4211 21.2142 42.4907 20.2837 42.3046ZM16.5619 40.4437C15.7245 40.2576 15.0732 40.7228 15.0732 41.4672C15.0732 42.3046 15.7245 43.049 16.5619 43.3281C17.3993 43.5142 18.0506 43.049 18.0506 42.3046C18.0506 41.4672 17.3993 40.6298 16.5619 40.4437ZM12.8401 38.4898C12.0958 38.3037 11.5375 38.7689 11.5375 39.4202C11.5375 40.1646 12.0958 40.9089 12.8401 41.095C13.5845 41.2811 14.1428 40.8159 14.1428 40.1646C14.1428 39.4202 13.4915 38.6759 12.8401 38.4898ZM8.93228 36.4428C8.28096 36.2567 7.81574 36.6289 7.81574 37.2802C7.81574 37.9315 8.37401 38.5828 8.93228 38.7689C9.58359 38.955 10.0488 38.5828 10.0488 37.9315C10.0488 37.2802 9.58359 36.6289 8.93228 36.4428ZM4.93136 34.4889C4.37309 34.3028 3.90787 34.6749 3.90787 35.2332C3.90787 35.7915 4.37309 36.3498 4.93136 36.5358C5.48962 36.7219 5.95485 36.3498 5.95485 35.7915C5.95485 35.1402 5.48962 34.5819 4.93136 34.4889ZM0.837406 32.3488C0.372181 32.2558 3.8147e-06 32.5349 3.8147e-06 33.0001C3.8147e-06 33.4654 0.372181 34.0236 0.837406 34.1167C1.30263 34.2097 1.6748 33.9306 1.6748 33.4654C1.6748 33.0001 1.30263 32.4419 0.837406 32.3488ZM20.2837 46.6777C19.4463 46.3986 18.702 46.9568 18.702 47.7942C18.702 48.6316 19.4463 49.5621 20.2837 49.8412C21.1211 50.1203 21.8655 49.5621 21.8655 48.7247C21.8655 47.7942 21.2142 46.8638 20.2837 46.6777ZM16.5619 44.8168C15.7245 44.6307 15.0732 45.0959 15.0732 45.8403C15.0732 46.6777 15.7245 47.4221 16.5619 47.7012C17.3993 47.8873 18.0506 47.4221 18.0506 46.6777C18.0506 45.8403 17.3993 45.0029 16.5619 44.8168ZM12.8401 42.9559C12.0958 42.7698 11.5375 43.235 11.5375 43.8864C11.5375 44.6307 12.0958 45.3751 12.8401 45.5612C13.5845 45.7472 14.1428 45.282 14.1428 44.6307C14.1428 43.8864 13.4915 43.142 12.8401 42.9559ZM8.93228 41.002C8.28096 40.8159 7.81574 41.1881 7.81574 41.8394C7.81574 42.4907 8.37401 43.142 8.93228 43.3281C9.58359 43.5142 10.0488 43.142 10.0488 42.4907C10.0488 41.8394 9.58359 41.095 8.93228 41.002ZM4.93136 38.955C4.37309 38.7689 3.90787 39.1411 3.90787 39.6994C3.90787 40.2576 4.37309 40.8159 4.93136 41.002C5.48962 41.1881 5.95485 40.8159 5.95485 40.2576C5.95485 39.6994 5.48962 39.1411 4.93136 38.955ZM0.837406 36.908C0.372181 36.815 3.8147e-06 37.0941 3.8147e-06 37.5593C3.8147e-06 38.0246 0.372181 38.5828 0.837406 38.6759C1.30263 38.7689 1.6748 38.4898 1.6748 38.0246C1.6748 37.5593 1.30263 37.0011 0.837406 36.908ZM42.4283 37.8385C42.5214 38.3037 42.9866 38.4898 43.4518 38.3037C43.917 38.0246 44.1031 37.4663 44.0101 37.0011C43.917 36.5358 43.4518 36.3498 42.9866 36.5358C42.5213 36.7219 42.2422 37.2802 42.4283 37.8385Z" fill="url(#paint0_radial_99_64)"/>
<defs>
<radialGradient id="paint0_radial_99_64" cx="0" cy="0" r="1" gradientUnits="userSpaceOnUse" gradientTransform="translate(21.9509 24.9975) rotate(150) scale(16.9233 18.0829)">
<stop stop-color="#00CCFF"/>
<stop offset="1" stop-color="#0055FE"/>
</radialGradient>
</defs>
</svg>
