<svg width="714" height="256" viewBox="0 0 714 256" fill="none" xmlns="http://www.w3.org/2000/svg">
<path d="M5.424 64V2.4H44.32V9.616H14.224V29.328H41.68V36.368H14.224V56.784H44.32V64H5.424ZM55.0462 64V19.648H62.9662L63.5822 25.896C64.9902 23.608 66.8676 21.8187 69.2142 20.528C71.5609 19.2373 74.2009 18.592 77.1342 18.592C79.3636 18.592 81.3876 18.9147 83.2062 19.56C85.0249 20.1467 86.6382 21.056 88.0462 22.288C89.4542 23.52 90.5982 25.0453 91.4782 26.864C93.0622 24.2827 95.1742 22.2587 97.8142 20.792C100.513 19.3253 103.358 18.592 106.35 18.592C109.929 18.592 113.009 19.3253 115.59 20.792C118.172 22.2 120.137 24.3413 121.486 27.216C122.836 30.032 123.51 33.552 123.51 37.776V64H114.798V38.656C114.798 34.5493 113.948 31.44 112.246 29.328C110.604 27.216 108.169 26.16 104.942 26.16C102.772 26.16 100.836 26.7173 99.1342 27.832C97.4329 28.9467 96.0836 30.56 95.0862 32.672C94.1476 34.784 93.6782 37.3653 93.6782 40.416V64H84.8782V38.656C84.8782 34.5493 84.0276 31.44 82.3262 29.328C80.6836 27.216 78.2489 26.16 75.0222 26.16C72.9689 26.16 71.0916 26.7173 69.3902 27.832C67.6889 28.9467 66.3396 30.56 65.3422 32.672C64.3449 34.784 63.8462 37.3653 63.8462 40.416V64H55.0462ZM134.671 83.36V19.648H142.591L143.471 26.512C144.41 25.1627 145.583 23.9013 146.991 22.728C148.399 21.496 150.071 20.4987 152.007 19.736C154.002 18.9733 156.319 18.592 158.959 18.592C163.183 18.592 166.879 19.6187 170.047 21.672C173.274 23.7253 175.767 26.512 177.527 30.032C179.346 33.4933 180.255 37.4533 180.255 41.912C180.255 46.3707 179.346 50.36 177.527 53.88C175.708 57.3413 173.186 60.0693 169.959 62.064C166.791 64.0587 163.095 65.056 158.871 65.056C155.41 65.056 152.359 64.3813 149.719 63.032C147.079 61.624 144.996 59.688 143.471 57.224V83.36H134.671ZM157.463 57.4C160.162 57.4 162.538 56.7547 164.591 55.464C166.703 54.1733 168.346 52.3547 169.519 50.008C170.751 47.6613 171.367 44.9333 171.367 41.824C171.367 38.7147 170.751 36.016 169.519 33.728C168.346 31.3813 166.703 29.5627 164.591 28.272C162.538 26.9227 160.162 26.248 157.463 26.248C154.706 26.248 152.271 26.9227 150.159 28.272C148.106 29.5627 146.492 31.3813 145.319 33.728C144.146 36.016 143.559 38.7147 143.559 41.824C143.559 44.9333 144.146 47.6613 145.319 50.008C146.492 52.3547 148.106 54.1733 150.159 55.464C152.271 56.7547 154.706 57.4 157.463 57.4ZM210.559 65.056C206.394 65.056 202.639 64.088 199.295 62.152C196.01 60.216 193.399 57.5173 191.463 54.056C189.586 50.536 188.647 46.488 188.647 41.912C188.647 37.2187 189.615 33.1413 191.551 29.68C193.487 26.16 196.127 23.432 199.471 21.496C202.815 19.56 206.57 18.592 210.735 18.592C214.959 18.592 218.714 19.56 221.999 21.496C225.284 23.432 227.866 26.1307 229.743 29.592C231.679 33.0533 232.647 37.1307 232.647 41.824C232.647 46.5173 231.679 50.5947 229.743 54.056C227.866 57.5173 225.255 60.216 221.911 62.152C218.567 64.088 214.783 65.056 210.559 65.056ZM210.559 57.488C212.964 57.488 215.135 56.9013 217.071 55.728C219.066 54.5547 220.65 52.824 221.823 50.536C223.055 48.1893 223.671 45.2853 223.671 41.824C223.671 38.3627 223.084 35.488 221.911 33.2C220.738 30.8533 219.154 29.0933 217.159 27.92C215.223 26.7467 213.082 26.16 210.735 26.16C208.388 26.16 206.218 26.7467 204.223 27.92C202.228 29.0933 200.615 30.8533 199.383 33.2C198.21 35.488 197.623 38.3627 197.623 41.824C197.623 45.2853 198.21 48.1893 199.383 50.536C200.615 52.824 202.199 54.5547 204.135 55.728C206.13 56.9013 208.271 57.488 210.559 57.488ZM250.217 64L237.193 19.648H245.905L255.585 56.608L253.913 56.52L264.649 19.648H274.505L285.241 56.52L283.569 56.608L293.161 19.648H302.049L289.025 64H279.961L268.697 25.544H270.457L259.193 64H250.217ZM328.297 65.056C324.073 65.056 320.318 64.088 317.033 62.152C313.747 60.216 311.166 57.5173 309.289 54.056C307.47 50.5947 306.561 46.576 306.561 42C306.561 37.3067 307.47 33.2293 309.289 29.768C311.166 26.248 313.747 23.52 317.033 21.584C320.318 19.5893 324.131 18.592 328.473 18.592C332.814 18.592 336.539 19.56 339.649 21.496C342.758 23.432 345.163 26.0133 346.865 29.24C348.566 32.408 349.417 35.928 349.417 39.8C349.417 40.3867 349.387 41.032 349.329 41.736C349.329 42.3813 349.299 43.1147 349.241 43.936H312.985V37.688H340.617C340.441 33.992 339.209 31.1173 336.921 29.064C334.633 26.952 331.787 25.896 328.385 25.896C325.979 25.896 323.779 26.4533 321.785 27.568C319.79 28.624 318.177 30.208 316.945 32.32C315.771 34.3733 315.185 36.984 315.185 40.152V42.616C315.185 45.9013 315.771 48.688 316.945 50.976C318.177 53.2053 319.79 54.9067 321.785 56.08C323.779 57.1947 325.95 57.752 328.297 57.752C331.113 57.752 333.43 57.136 335.249 55.904C337.067 54.672 338.417 53 339.297 50.888H348.097C347.334 53.5867 346.043 56.0213 344.225 58.192C342.406 60.304 340.147 61.976 337.449 63.208C334.809 64.44 331.758 65.056 328.297 65.056ZM358.982 64V19.648H366.902L367.694 28.008C368.692 26.0133 369.982 24.3413 371.566 22.992C373.15 21.584 374.998 20.4987 377.11 19.736C379.281 18.9733 381.745 18.592 384.502 18.592V27.92H381.334C379.516 27.92 377.785 28.1547 376.142 28.624C374.5 29.0347 373.033 29.768 371.742 30.824C370.51 31.88 369.542 33.3173 368.838 35.136C368.134 36.9547 367.782 39.2133 367.782 41.912V64H358.982ZM392.989 64V19.648H401.789V64H392.989ZM397.477 11.288C395.775 11.288 394.367 10.76 393.253 9.704C392.197 8.648 391.669 7.29866 391.669 5.656C391.669 4.072 392.197 2.78133 393.253 1.784C394.367 0.727998 395.775 0.199998 397.477 0.199998C399.119 0.199998 400.498 0.727998 401.613 1.784C402.727 2.78133 403.285 4.072 403.285 5.656C403.285 7.29866 402.727 8.648 401.613 9.704C400.498 10.76 399.119 11.288 397.477 11.288ZM414.162 64V19.648H422.082L422.61 27.216C424.018 24.576 426.012 22.4933 428.594 20.968C431.175 19.384 434.138 18.592 437.482 18.592C441.002 18.592 444.023 19.296 446.546 20.704C449.068 22.112 451.034 24.2533 452.442 27.128C453.85 29.944 454.554 33.4933 454.554 37.776V64H445.754V38.656C445.754 34.5493 444.844 31.44 443.026 29.328C441.207 27.216 438.567 26.16 435.106 26.16C432.818 26.16 430.764 26.7173 428.946 27.832C427.127 28.888 425.66 30.472 424.546 32.584C423.49 34.696 422.962 37.2773 422.962 40.328V64H414.162ZM483.639 84.416C479.591 84.416 476.012 83.888 472.903 82.832C469.794 81.8347 467.388 80.28 465.687 78.168C463.986 76.056 463.135 73.4747 463.135 70.424C463.135 68.84 463.487 67.2267 464.191 65.584C464.895 64 466.039 62.4747 467.623 61.008C469.207 59.5413 471.348 58.2213 474.047 57.048L478.975 61.008C475.983 62.1227 473.959 63.4427 472.903 64.968C471.906 66.552 471.407 68.0773 471.407 69.544C471.407 71.304 471.935 72.7707 472.991 73.944C474.047 75.1173 475.484 75.9973 477.303 76.584C479.18 77.1707 481.292 77.464 483.639 77.464C485.927 77.464 487.922 77.1413 489.623 76.496C491.324 75.8507 492.644 74.9413 493.583 73.768C494.522 72.5947 494.991 71.216 494.991 69.632C494.991 67.7547 494.287 66.1707 492.879 64.88C491.471 63.648 488.772 62.9147 484.783 62.68C481.439 62.4453 478.594 62.1227 476.247 61.712C473.959 61.3013 471.994 60.8027 470.351 60.216C468.767 59.6293 467.418 58.984 466.303 58.28C465.247 57.576 464.338 56.8427 463.575 56.08V54.056L472.375 44.992L479.503 47.456L469.911 56.344L471.759 52.384C472.404 52.7947 473.02 53.2053 473.607 53.616C474.194 53.968 474.986 54.2907 475.983 54.584C476.98 54.8773 478.33 55.1413 480.031 55.376C481.732 55.6107 483.962 55.8453 486.719 56.08C490.708 56.3733 493.906 57.0773 496.311 58.192C498.775 59.3067 500.564 60.8027 501.679 62.68C502.794 64.5573 503.351 66.7867 503.351 69.368C503.351 71.8907 502.647 74.296 501.239 76.584C499.89 78.872 497.748 80.7493 494.815 82.216C491.94 83.6827 488.215 84.416 483.639 84.416ZM483.639 50.36C479.884 50.36 476.687 49.656 474.047 48.248C471.466 46.84 469.471 44.9333 468.063 42.528C466.714 40.1227 466.039 37.4533 466.039 34.52C466.039 31.528 466.714 28.8587 468.063 26.512C469.471 24.1067 471.495 22.2 474.135 20.792C476.775 19.3253 479.943 18.592 483.639 18.592C487.335 18.592 490.474 19.3253 493.055 20.792C495.695 22.2 497.69 24.1067 499.039 26.512C500.447 28.8587 501.151 31.528 501.151 34.52C501.151 37.4533 500.447 40.1227 499.039 42.528C497.69 44.9333 495.695 46.84 493.055 48.248C490.474 49.656 487.335 50.36 483.639 50.36ZM483.639 43.32C486.514 43.32 488.802 42.5867 490.503 41.12C492.204 39.5947 493.055 37.3947 493.055 34.52C493.055 31.6453 492.204 29.4747 490.503 28.008C488.802 26.4827 486.514 25.72 483.639 25.72C480.764 25.72 478.447 26.4827 476.687 28.008C474.927 29.4747 474.047 31.6453 474.047 34.52C474.047 37.3947 474.927 39.5947 476.687 41.12C478.447 42.5867 480.764 43.32 483.639 43.32ZM490.855 26.6L488.743 19.648H506.959V25.72L490.855 26.6ZM5.424 160V98.4H26.456C31.384 98.4 35.432 99.2213 38.6 100.864C41.768 102.507 44.1147 104.707 45.64 107.464C47.1653 110.221 47.928 113.36 47.928 116.88C47.928 120.224 47.1653 123.304 45.64 126.12C44.1733 128.877 41.856 131.107 38.688 132.808C35.52 134.451 31.4427 135.272 26.456 135.272H14.224V160H5.424ZM14.224 127.968H26.104C30.7387 127.968 34.024 126.971 35.96 124.976C37.9547 122.923 38.952 120.224 38.952 116.88C38.952 113.301 37.9547 110.544 35.96 108.608C34.024 106.672 30.7387 105.704 26.104 105.704H14.224V127.968ZM56.765 160V115.648H64.685L65.477 124.008C66.4743 122.013 67.765 120.341 69.349 118.992C70.933 117.584 72.781 116.499 74.893 115.736C77.0637 114.973 79.5277 114.592 82.285 114.592V123.92H79.117C77.2983 123.92 75.5677 124.155 73.925 124.624C72.2823 125.035 70.8157 125.768 69.525 126.824C68.293 127.88 67.325 129.317 66.621 131.136C65.917 132.955 65.565 135.213 65.565 137.912V160H56.765ZM109.106 161.056C104.941 161.056 101.186 160.088 97.8423 158.152C94.557 156.216 91.9463 153.517 90.0103 150.056C88.133 146.536 87.1943 142.488 87.1943 137.912C87.1943 133.219 88.1623 129.141 90.0983 125.68C92.0343 122.16 94.6743 119.432 98.0183 117.496C101.362 115.56 105.117 114.592 109.282 114.592C113.506 114.592 117.261 115.56 120.546 117.496C123.832 119.432 126.413 122.131 128.29 125.592C130.226 129.053 131.194 133.131 131.194 137.824C131.194 142.517 130.226 146.595 128.29 150.056C126.413 153.517 123.802 156.216 120.458 158.152C117.114 160.088 113.33 161.056 109.106 161.056ZM109.106 153.488C111.512 153.488 113.682 152.901 115.618 151.728C117.613 150.555 119.197 148.824 120.37 146.536C121.602 144.189 122.218 141.285 122.218 137.824C122.218 134.363 121.632 131.488 120.458 129.2C119.285 126.853 117.701 125.093 115.706 123.92C113.77 122.747 111.629 122.16 109.282 122.16C106.936 122.16 104.765 122.747 102.77 123.92C100.776 125.093 99.1623 126.853 97.9303 129.2C96.757 131.488 96.1703 134.363 96.1703 137.824C96.1703 141.285 96.757 144.189 97.9303 146.536C99.1623 148.824 100.746 150.555 102.682 151.728C104.677 152.901 106.818 153.488 109.106 153.488ZM132.887 179.36V171.88H136.407C138.519 171.88 140.015 171.44 140.895 170.56C141.775 169.68 142.215 168.213 142.215 166.16V115.648H151.015V166.336C151.015 169.387 150.487 171.88 149.431 173.816C148.433 175.752 146.937 177.16 144.943 178.04C142.948 178.92 140.543 179.36 137.727 179.36H132.887ZM146.703 107.288C145.001 107.288 143.593 106.76 142.479 105.704C141.423 104.648 140.895 103.299 140.895 101.656C140.895 100.072 141.423 98.7813 142.479 97.784C143.593 96.728 145.001 96.2 146.703 96.2C148.345 96.2 149.695 96.728 150.751 97.784C151.865 98.7813 152.423 100.072 152.423 101.656C152.423 103.299 151.865 104.648 150.751 105.704C149.695 106.76 148.345 107.288 146.703 107.288ZM183.359 161.056C179.135 161.056 175.381 160.088 172.095 158.152C168.81 156.216 166.229 153.517 164.351 150.056C162.533 146.595 161.623 142.576 161.623 138C161.623 133.307 162.533 129.229 164.351 125.768C166.229 122.248 168.81 119.52 172.095 117.584C175.381 115.589 179.194 114.592 183.535 114.592C187.877 114.592 191.602 115.56 194.711 117.496C197.821 119.432 200.226 122.013 201.927 125.24C203.629 128.408 204.479 131.928 204.479 135.8C204.479 136.387 204.45 137.032 204.391 137.736C204.391 138.381 204.362 139.115 204.303 139.936H168.047V133.688H195.679C195.503 129.992 194.271 127.117 191.983 125.064C189.695 122.952 186.85 121.896 183.447 121.896C181.042 121.896 178.842 122.453 176.847 123.568C174.853 124.624 173.239 126.208 172.007 128.32C170.834 130.373 170.247 132.984 170.247 136.152V138.616C170.247 141.901 170.834 144.688 172.007 146.976C173.239 149.205 174.853 150.907 176.847 152.08C178.842 153.195 181.013 153.752 183.359 153.752C186.175 153.752 188.493 153.136 190.311 151.904C192.13 150.672 193.479 149 194.359 146.888H203.159C202.397 149.587 201.106 152.021 199.287 154.192C197.469 156.304 195.21 157.976 192.511 159.208C189.871 160.44 186.821 161.056 183.359 161.056ZM234.549 161.056C230.267 161.056 226.453 160.088 223.109 158.152C219.765 156.157 217.125 153.429 215.189 149.968C213.312 146.507 212.373 142.488 212.373 137.912C212.373 133.277 213.312 129.229 215.189 125.768C217.125 122.248 219.765 119.52 223.109 117.584C226.453 115.589 230.267 114.592 234.549 114.592C239.947 114.592 244.464 116 248.101 118.816C251.739 121.632 254.056 125.445 255.053 130.256H245.901C245.315 127.675 243.965 125.68 241.853 124.272C239.8 122.864 237.336 122.16 234.461 122.16C232.115 122.16 229.944 122.776 227.949 124.008C225.955 125.181 224.341 126.941 223.109 129.288C221.936 131.576 221.349 134.421 221.349 137.824C221.349 140.347 221.701 142.605 222.405 144.6C223.109 146.536 224.048 148.179 225.221 149.528C226.453 150.877 227.861 151.904 229.445 152.608C231.029 153.253 232.701 153.576 234.461 153.576C236.397 153.576 238.128 153.283 239.653 152.696C241.237 152.051 242.557 151.112 243.613 149.88C244.728 148.648 245.491 147.181 245.901 145.48H255.053C254.056 150.173 251.739 153.957 248.101 156.832C244.464 159.648 239.947 161.056 234.549 161.056ZM282.497 160C279.681 160 277.247 159.56 275.193 158.68C273.14 157.8 271.556 156.333 270.441 154.28C269.327 152.227 268.769 149.44 268.769 145.92V123.128H261.113V115.648H268.769L269.825 104.56H277.569V115.648H290.153V123.128H277.569V146.008C277.569 148.531 278.097 150.261 279.153 151.2C280.209 152.08 282.028 152.52 284.609 152.52H289.713V160H282.497ZM322.391 160V98.4H332.775L353.631 140.024L374.399 98.4H384.871V160H376.071V113.8L356.975 151.376H350.199L331.191 113.888V160H322.391ZM411.717 161.056C408.079 161.056 405.058 160.44 402.653 159.208C400.247 157.976 398.458 156.333 397.285 154.28C396.111 152.168 395.525 149.909 395.525 147.504C395.525 144.571 396.287 142.077 397.813 140.024C399.338 137.912 401.509 136.299 404.325 135.184C407.141 134.069 410.514 133.512 414.445 133.512H425.973C425.973 130.931 425.591 128.789 424.829 127.088C424.066 125.387 422.922 124.125 421.397 123.304C419.93 122.424 418.053 121.984 415.765 121.984C413.125 121.984 410.866 122.629 408.989 123.92C407.111 125.152 405.938 127 405.469 129.464H396.669C397.021 126.355 398.077 123.715 399.837 121.544C401.655 119.315 403.973 117.613 406.789 116.44C409.605 115.208 412.597 114.592 415.765 114.592C419.93 114.592 423.421 115.325 426.237 116.792C429.053 118.259 431.165 120.341 432.573 123.04C434.039 125.68 434.773 128.848 434.773 132.544V160H427.117L426.413 152.52C425.767 153.693 425.005 154.808 424.125 155.864C423.245 156.92 422.189 157.829 420.957 158.592C419.783 159.355 418.405 159.941 416.821 160.352C415.295 160.821 413.594 161.056 411.717 161.056ZM413.389 153.928C415.266 153.928 416.967 153.547 418.493 152.784C420.018 152.021 421.309 150.995 422.365 149.704C423.479 148.355 424.301 146.859 424.829 145.216C425.415 143.515 425.738 141.784 425.797 140.024V139.76H415.325C412.802 139.76 410.749 140.083 409.165 140.728C407.639 141.315 406.525 142.136 405.821 143.192C405.117 144.248 404.765 145.48 404.765 146.888C404.765 148.355 405.087 149.616 405.733 150.672C406.437 151.669 407.434 152.461 408.725 153.048C410.015 153.635 411.57 153.928 413.389 153.928ZM445.794 160V115.648H453.714L454.242 123.216C455.65 120.576 457.645 118.493 460.226 116.968C462.807 115.384 465.77 114.592 469.114 114.592C472.634 114.592 475.655 115.296 478.178 116.704C480.701 118.112 482.666 120.253 484.074 123.128C485.482 125.944 486.186 129.493 486.186 133.776V160H477.386V134.656C477.386 130.549 476.477 127.44 474.658 125.328C472.839 123.216 470.199 122.16 466.738 122.16C464.45 122.16 462.397 122.717 460.578 123.832C458.759 124.888 457.293 126.472 456.178 128.584C455.122 130.696 454.594 133.277 454.594 136.328V160H445.794ZM511.927 161.056C508.29 161.056 505.268 160.44 502.863 159.208C500.458 157.976 498.668 156.333 497.495 154.28C496.322 152.168 495.735 149.909 495.735 147.504C495.735 144.571 496.498 142.077 498.023 140.024C499.548 137.912 501.719 136.299 504.535 135.184C507.351 134.069 510.724 133.512 514.655 133.512H526.183C526.183 130.931 525.802 128.789 525.039 127.088C524.276 125.387 523.132 124.125 521.607 123.304C520.14 122.424 518.263 121.984 515.975 121.984C513.335 121.984 511.076 122.629 509.199 123.92C507.322 125.152 506.148 127 505.679 129.464H496.879C497.231 126.355 498.287 123.715 500.047 121.544C501.866 119.315 504.183 117.613 506.999 116.44C509.815 115.208 512.807 114.592 515.975 114.592C520.14 114.592 523.631 115.325 526.447 116.792C529.263 118.259 531.375 120.341 532.783 123.04C534.25 125.68 534.983 128.848 534.983 132.544V160H527.327L526.623 152.52C525.978 153.693 525.215 154.808 524.335 155.864C523.455 156.92 522.399 157.829 521.167 158.592C519.994 159.355 518.615 159.941 517.031 160.352C515.506 160.821 513.804 161.056 511.927 161.056ZM513.599 153.928C515.476 153.928 517.178 153.547 518.703 152.784C520.228 152.021 521.519 150.995 522.575 149.704C523.69 148.355 524.511 146.859 525.039 145.216C525.626 143.515 525.948 141.784 526.007 140.024V139.76H515.535C513.012 139.76 510.959 140.083 509.375 140.728C507.85 141.315 506.735 142.136 506.031 143.192C505.327 144.248 504.975 145.48 504.975 146.888C504.975 148.355 505.298 149.616 505.943 150.672C506.647 151.669 507.644 152.461 508.935 153.048C510.226 153.635 511.78 153.928 513.599 153.928ZM564.044 180.416C559.996 180.416 556.418 179.888 553.308 178.832C550.199 177.835 547.794 176.28 546.092 174.168C544.391 172.056 543.54 169.475 543.54 166.424C543.54 164.84 543.892 163.227 544.596 161.584C545.3 160 546.444 158.475 548.028 157.008C549.612 155.541 551.754 154.221 554.452 153.048L559.38 157.008C556.388 158.123 554.364 159.443 553.308 160.968C552.311 162.552 551.812 164.077 551.812 165.544C551.812 167.304 552.34 168.771 553.396 169.944C554.452 171.117 555.89 171.997 557.708 172.584C559.586 173.171 561.698 173.464 564.044 173.464C566.332 173.464 568.327 173.141 570.028 172.496C571.73 171.851 573.05 170.941 573.988 169.768C574.927 168.595 575.396 167.216 575.396 165.632C575.396 163.755 574.692 162.171 573.284 160.88C571.876 159.648 569.178 158.915 565.188 158.68C561.844 158.445 558.999 158.123 556.652 157.712C554.364 157.301 552.399 156.803 550.756 156.216C549.172 155.629 547.823 154.984 546.708 154.28C545.652 153.576 544.743 152.843 543.98 152.08V150.056L552.78 140.992L559.908 143.456L550.316 152.344L552.164 148.384C552.81 148.795 553.426 149.205 554.012 149.616C554.599 149.968 555.391 150.291 556.388 150.584C557.386 150.877 558.735 151.141 560.436 151.376C562.138 151.611 564.367 151.845 567.124 152.08C571.114 152.373 574.311 153.077 576.716 154.192C579.18 155.307 580.97 156.803 582.084 158.68C583.199 160.557 583.756 162.787 583.756 165.368C583.756 167.891 583.052 170.296 581.644 172.584C580.295 174.872 578.154 176.749 575.22 178.216C572.346 179.683 568.62 180.416 564.044 180.416ZM564.044 146.36C560.29 146.36 557.092 145.656 554.452 144.248C551.871 142.84 549.876 140.933 548.468 138.528C547.119 136.123 546.444 133.453 546.444 130.52C546.444 127.528 547.119 124.859 548.468 122.512C549.876 120.107 551.9 118.2 554.54 116.792C557.18 115.325 560.348 114.592 564.044 114.592C567.74 114.592 570.879 115.325 573.46 116.792C576.1 118.2 578.095 120.107 579.444 122.512C580.852 124.859 581.556 127.528 581.556 130.52C581.556 133.453 580.852 136.123 579.444 138.528C578.095 140.933 576.1 142.84 573.46 144.248C570.879 145.656 567.74 146.36 564.044 146.36ZM564.044 139.32C566.919 139.32 569.207 138.587 570.908 137.12C572.61 135.595 573.46 133.395 573.46 130.52C573.46 127.645 572.61 125.475 570.908 124.008C569.207 122.483 566.919 121.72 564.044 121.72C561.17 121.72 558.852 122.483 557.092 124.008C555.332 125.475 554.452 127.645 554.452 130.52C554.452 133.395 555.332 135.595 557.092 137.12C558.852 138.587 561.17 139.32 564.044 139.32ZM571.26 122.6L569.148 115.648H587.364V121.72L571.26 122.6ZM614.326 161.056C610.102 161.056 606.347 160.088 603.062 158.152C599.776 156.216 597.195 153.517 595.318 150.056C593.499 146.595 592.59 142.576 592.59 138C592.59 133.307 593.499 129.229 595.318 125.768C597.195 122.248 599.776 119.52 603.062 117.584C606.347 115.589 610.16 114.592 614.502 114.592C618.843 114.592 622.568 115.56 625.678 117.496C628.787 119.432 631.193 122.013 632.894 125.24C634.595 128.408 635.446 131.928 635.446 135.8C635.446 136.387 635.417 137.032 635.358 137.736C635.358 138.381 635.329 139.115 635.27 139.936H599.014V133.688H626.646C626.47 129.992 625.238 127.117 622.95 125.064C620.662 122.952 617.817 121.896 614.414 121.896C612.009 121.896 609.808 122.453 607.814 123.568C605.819 124.624 604.206 126.208 602.974 128.32C601.8 130.373 601.214 132.984 601.214 136.152V138.616C601.214 141.901 601.8 144.688 602.974 146.976C604.206 149.205 605.819 150.907 607.814 152.08C609.808 153.195 611.979 153.752 614.326 153.752C617.142 153.752 619.459 153.136 621.278 151.904C623.097 150.672 624.446 149 625.326 146.888H634.126C633.363 149.587 632.073 152.021 630.254 154.192C628.435 156.304 626.176 157.976 623.478 159.208C620.838 160.44 617.787 161.056 614.326 161.056ZM645.012 160V115.648H652.932L653.724 124.008C654.721 122.013 656.012 120.341 657.596 118.992C659.18 117.584 661.028 116.499 663.14 115.736C665.31 114.973 667.774 114.592 670.532 114.592V123.92H667.364C665.545 123.92 663.814 124.155 662.172 124.624C660.529 125.035 659.062 125.768 657.772 126.824C656.54 127.88 655.572 129.317 654.868 131.136C654.164 132.955 653.812 135.213 653.812 137.912V160H645.012ZM695.562 161.056C691.807 161.056 688.522 160.44 685.706 159.208C682.89 157.976 680.661 156.245 679.018 154.016C677.375 151.787 676.378 149.176 676.026 146.184H685.002C685.295 147.592 685.853 148.883 686.674 150.056C687.554 151.229 688.727 152.168 690.194 152.872C691.719 153.576 693.509 153.928 695.562 153.928C697.498 153.928 699.082 153.664 700.314 153.136C701.605 152.549 702.543 151.787 703.13 150.848C703.717 149.851 704.01 148.795 704.01 147.68C704.01 146.037 703.599 144.805 702.778 143.984C702.015 143.104 700.842 142.429 699.258 141.96C697.733 141.432 695.885 140.963 693.714 140.552C691.661 140.2 689.666 139.731 687.73 139.144C685.853 138.499 684.151 137.707 682.626 136.768C681.159 135.829 679.986 134.656 679.106 133.248C678.226 131.781 677.786 129.992 677.786 127.88C677.786 125.357 678.461 123.099 679.81 121.104C681.159 119.051 683.066 117.467 685.53 116.352C688.053 115.179 691.015 114.592 694.418 114.592C699.346 114.592 703.306 115.765 706.298 118.112C709.29 120.459 711.05 123.773 711.578 128.056H703.042C702.807 126.061 701.927 124.536 700.402 123.48C698.877 122.365 696.853 121.808 694.33 121.808C691.807 121.808 689.871 122.307 688.522 123.304C687.173 124.301 686.498 125.621 686.498 127.264C686.498 128.32 686.879 129.259 687.642 130.08C688.405 130.901 689.519 131.605 690.986 132.192C692.511 132.72 694.359 133.219 696.53 133.688C699.639 134.275 702.426 135.008 704.89 135.888C707.354 136.768 709.319 138.059 710.786 139.76C712.253 141.461 712.986 143.896 712.986 147.064C713.045 149.821 712.341 152.256 710.874 154.368C709.466 156.48 707.442 158.123 704.802 159.296C702.221 160.469 699.141 161.056 695.562 161.056ZM13.96 256L0.936 211.648H9.648L19.328 248.608L17.656 248.52L28.392 211.648H38.248L48.984 248.52L47.312 248.608L56.904 211.648H65.792L52.768 256H43.704L32.44 217.544H34.2L22.936 256H13.96ZM74.1388 256V211.648H82.9388V256H74.1388ZM78.6268 203.288C76.9255 203.288 75.5175 202.76 74.4028 201.704C73.3468 200.648 72.8188 199.299 72.8188 197.656C72.8188 196.072 73.3468 194.781 74.4028 193.784C75.5175 192.728 76.9255 192.2 78.6268 192.2C80.2695 192.2 81.6481 192.728 82.7628 193.784C83.8775 194.781 84.4348 196.072 84.4348 197.656C84.4348 199.299 83.8775 200.648 82.7628 201.704C81.6481 202.76 80.2695 203.288 78.6268 203.288ZM113.616 256C110.8 256 108.365 255.56 106.312 254.68C104.258 253.8 102.674 252.333 101.56 250.28C100.445 248.227 99.8876 245.44 99.8876 241.92V219.128H92.2316V211.648H99.8876L100.944 200.56H108.688V211.648H121.272V219.128H108.688V242.008C108.688 244.531 109.216 246.261 110.272 247.2C111.328 248.08 113.146 248.52 115.728 248.52H120.832V256H113.616ZM130.764 256V192.64H139.564V218.864C141.031 216.283 143.055 214.259 145.636 212.792C148.276 211.325 151.18 210.592 154.348 210.592C157.868 210.592 160.89 211.325 163.412 212.792C165.935 214.2 167.871 216.341 169.22 219.216C170.57 222.032 171.244 225.581 171.244 229.864V256H162.532V230.744C162.532 226.637 161.652 223.528 159.892 221.416C158.132 219.245 155.522 218.16 152.06 218.16C149.714 218.16 147.602 218.717 145.724 219.832C143.847 220.947 142.351 222.589 141.236 224.76C140.122 226.872 139.564 229.453 139.564 232.504V256H130.764ZM201.072 256L223.688 194.4H233.28L255.896 256H246.48L228.44 204.96L210.312 256H201.072ZM211.28 240.776L213.744 233.736H242.696L245.16 240.776H211.28ZM264.461 256V194.4H273.261V256H264.461Z" fill="url(#paint0_linear_1_132)"/>
<defs>
<linearGradient id="paint0_linear_1_132" x1="-1" y1="130" x2="820" y2="130" gradientUnits="userSpaceOnUse">
<stop stop-color="white"/>
<stop offset="1" stop-color="#7185AC"/>
</linearGradient>
</defs>
</svg>
