<svg width="60" height="70" viewBox="0 0 60 70" fill="none" xmlns="http://www.w3.org/2000/svg">
<g filter="url(#filter0_ddddi_7_326)">
<rect x="6" y="1" width="48" height="48" rx="12" fill="#0055FE"/>
<path d="M30.9916 25C32.6484 25 33.9916 26.3432 33.9916 28L33.99 29.4967C34.1957 33.1699 31.3667 35.0016 26.1204 35.0016C20.891 35.0016 18 33.1938 18 29.5492V28C18 26.3432 19.3431 25 21 25H30.9916ZM38.9928 25C40.6496 25 41.9928 26.3432 41.9928 28L41.9913 29.0532C42.1721 32.3481 39.6723 34 35.1032 34C34.4829 34 33.8999 33.9698 33.3553 33.9093C33.9366 33.3746 34.3696 32.7363 34.6456 31.9948L35.1032 32C38.6716 32 40.0982 31.0572 39.9928 29.108V28C39.9928 27.4477 39.5451 27 38.9928 27L34.8655 27C34.6631 26.2133 34.2273 25.5204 33.6365 24.9992L38.9928 25ZM30.9916 27H21C20.4477 27 20 27.4477 20 28V29.5492C20 31.8411 21.8559 33.0016 26.1204 33.0016C30.3679 33.0016 32.1197 31.8674 31.9916 29.5527V28C31.9916 27.4477 31.5439 27 30.9916 27ZM26 13C28.7619 13 31.0008 15.2389 31.0008 18.0008C31.0008 20.7627 28.7619 23.0016 26 23.0016C23.2381 23.0016 20.9992 20.7627 20.9992 18.0008C20.9992 15.2389 23.2381 13 26 13ZM36 15C38.2091 15 40 16.7909 40 19C40 21.2091 38.2091 23 36 23C33.7909 23 32 21.2091 32 19C32 16.7909 33.7909 15 36 15ZM26 15C24.3427 15 22.9992 16.3435 22.9992 18.0008C22.9992 19.6581 24.3427 21.0016 26 21.0016C27.6573 21.0016 29.0008 19.6581 29.0008 18.0008C29.0008 16.3435 27.6573 15 26 15ZM36 17C34.8954 17 34 17.8954 34 19C34 20.1046 34.8954 21 36 21C37.1046 21 38 20.1046 38 19C38 17.8954 37.1046 17 36 17Z" fill="white"/>
</g>
<defs>
<filter id="filter0_ddddi_7_326" x="0" y="0" width="60" height="70" filterUnits="userSpaceOnUse" color-interpolation-filters="sRGB">
<feFlood flood-opacity="0" result="BackgroundImageFix"/>
<feColorMatrix in="SourceAlpha" type="matrix" values="0 0 0 0 0 0 0 0 0 0 0 0 0 0 0 0 0 0 127 0" result="hardAlpha"/>
<feOffset dy="1"/>
<feGaussianBlur stdDeviation="1"/>
<feColorMatrix type="matrix" values="0 0 0 0 0.00784314 0 0 0 0 0.482353 0 0 0 0 1 0 0 0 0.12 0"/>
<feBlend mode="normal" in2="BackgroundImageFix" result="effect1_dropShadow_7_326"/>
<feColorMatrix in="SourceAlpha" type="matrix" values="0 0 0 0 0 0 0 0 0 0 0 0 0 0 0 0 0 0 127 0" result="hardAlpha"/>
<feOffset dy="4"/>
<feGaussianBlur stdDeviation="2"/>
<feColorMatrix type="matrix" values="0 0 0 0 0.00784314 0 0 0 0 0.482353 0 0 0 0 1 0 0 0 0.1 0"/>
<feBlend mode="normal" in2="effect1_dropShadow_7_326" result="effect2_dropShadow_7_326"/>
<feColorMatrix in="SourceAlpha" type="matrix" values="0 0 0 0 0 0 0 0 0 0 0 0 0 0 0 0 0 0 127 0" result="hardAlpha"/>
<feOffset dy="8"/>
<feGaussianBlur stdDeviation="2.5"/>
<feColorMatrix type="matrix" values="0 0 0 0 0.00784314 0 0 0 0 0.482353 0 0 0 0 1 0 0 0 0.06 0"/>
<feBlend mode="normal" in2="effect2_dropShadow_7_326" result="effect3_dropShadow_7_326"/>
<feColorMatrix in="SourceAlpha" type="matrix" values="0 0 0 0 0 0 0 0 0 0 0 0 0 0 0 0 0 0 127 0" result="hardAlpha"/>
<feOffset dy="15"/>
<feGaussianBlur stdDeviation="3"/>
<feColorMatrix type="matrix" values="0 0 0 0 0.00784314 0 0 0 0 0.482353 0 0 0 0 1 0 0 0 0.02 0"/>
<feBlend mode="normal" in2="effect3_dropShadow_7_326" result="effect4_dropShadow_7_326"/>
<feBlend mode="normal" in="SourceGraphic" in2="effect4_dropShadow_7_326" result="shape"/>
<feColorMatrix in="SourceAlpha" type="matrix" values="0 0 0 0 0 0 0 0 0 0 0 0 0 0 0 0 0 0 127 0" result="hardAlpha"/>
<feOffset dy="4"/>
<feGaussianBlur stdDeviation="2"/>
<feComposite in2="hardAlpha" operator="arithmetic" k2="-1" k3="1"/>
<feColorMatrix type="matrix" values="0 0 0 0 1 0 0 0 0 1 0 0 0 0 1 0 0 0 0.24 0"/>
<feBlend mode="normal" in2="shape" result="effect5_innerShadow_7_326"/>
</filter>
</defs>
</svg>
